<svg width="300" height="200" viewBox="0 0 300 200" fill="none" xmlns="http://www.w3.org/2000/svg">
<g clip-path="url(#clip0_5337_436)">
<path d="M82 76.5403H91.5C91.1395 73.8136 92.0408 71.5326 94.2039 69.6972C96.6877 67.6506 99.6367 68.1094 101.22 68.8156C102.804 69.5218 103.98 70.4921 104.796 72.323C105.141 73.0939 105.376 73.7461 105.5 74.2796" stroke="#C2E8FF" stroke-width="3" stroke-linecap="round"/>
<path d="M101.5 78.0475C102.028 76.2119 103.111 75.0118 104.75 74.4471C107.209 73.6001 109.54 74.7281 110.471 75.8631C111.402 76.9981 111.698 77.9098 111.873 78.8613C111.99 79.4957 112.033 80.2291 112 81.0617H114.082C116.018 81.5784 116.994 82.73 117.008 84.5167C117.032 87.7064 114.695 88.5001 113.5 88.5001H74" stroke="#C2E8FF" stroke-width="3" stroke-linecap="round"/>
<path d="M69 82.5H101.5" stroke="#C2E8FF" stroke-width="3" stroke-linecap="round"/>
<path d="M60 82.5H64" stroke="#C2E8FF" stroke-width="3" stroke-linecap="round"/>
<path d="M205 93.5403H214.5C214.139 90.8136 215.041 88.5326 217.204 86.6972C219.688 84.6506 222.637 85.1094 224.22 85.8156C225.804 86.5218 226.98 87.4921 227.796 89.323C228.141 90.0939 228.376 90.7461 228.5 91.2796" stroke="#C2E8FF" stroke-width="3" stroke-linecap="round"/>
<path d="M224.5 95.0475C225.028 93.2119 226.111 92.0118 227.75 91.4471C230.209 90.6001 232.54 91.7281 233.471 92.8631C234.402 93.9981 234.698 94.9098 234.873 95.8613C234.99 96.4957 235.033 97.2291 235 98.0617H237.082C239.018 98.5784 239.994 99.73 240.008 101.517C240.032 104.706 237.695 105.5 236.5 105.5H197" stroke="#C2E8FF" stroke-width="3" stroke-linecap="round"/>
<path d="M192 99.5H224.5" stroke="#C2E8FF" stroke-width="3" stroke-linecap="round"/>
<path d="M183 99.5H187" stroke="#C2E8FF" stroke-width="3" stroke-linecap="round"/>
<path fill-rule="evenodd" clip-rule="evenodd" d="M180.43 94.4268L186.781 97.5246L192.041 92.5L209.703 109.73H183L180.43 94.4268Z" fill="white"/>
<path fill-rule="evenodd" clip-rule="evenodd" d="M151 151.667C155.143 153.042 160.768 150.278 167.875 143.376C174.982 136.475 183.461 128.182 193.312 118.497C197.806 114.746 202.379 114.013 207.031 116.296C211.684 118.58 211.364 121.851 206.072 126.11L183.309 151.667C169.54 156.602 162.208 159.069 161.312 159.069C160.417 159.069 156.98 156.602 151 151.667Z" fill="white" stroke="#C2E8FF" stroke-width="3"/>
<path fill-rule="evenodd" clip-rule="evenodd" d="M157 149.585C167.046 150.181 175.623 147.029 182.729 140.127C189.836 133.225 198.315 124.932 208.167 115.248C212.042 111.852 216.526 111.119 221.618 113.049C226.711 114.979 226.48 118.249 220.927 122.86L198.163 148.418C184.394 153.352 177.062 155.819 176.167 155.819C175.272 155.819 168.883 153.741 157 149.585Z" fill="white" stroke="#C2E8FF" stroke-width="3"/>
<path d="M121.5 122.5L143.5 102L160.25 118" stroke="#C2E8FF" stroke-width="3" stroke-linecap="round" stroke-linejoin="round"/>
<path d="M155 112.5L160.5 107.5L176 122" stroke="#C2E8FF" stroke-width="3" stroke-linecap="round" stroke-linejoin="round"/>
<path d="M151 109L175.5 86.5L192.25 102.5" stroke="#C2E8FF" stroke-width="3" stroke-linecap="round" stroke-linejoin="round"/>
<path d="M187 97L192.5 92L206.5 105.5" stroke="#C2E8FF" stroke-width="3" stroke-linecap="round" stroke-linejoin="round"/>
<path fill-rule="evenodd" clip-rule="evenodd" d="M157.332 95.1852L154.82 104.873L160.5 100.141L159.27 95.1949C159.137 94.6589 158.595 94.3324 158.059 94.4657C157.703 94.5542 157.424 94.8303 157.332 95.1852Z" fill="#C2E8FF"/>
<path fill-rule="evenodd" clip-rule="evenodd" d="M189.421 117.792L195.259 137.943C195.567 139.004 194.956 140.114 193.895 140.421C193.714 140.473 193.527 140.5 193.338 140.5H181.662C180.557 140.5 179.662 139.605 179.662 138.5C179.662 138.312 179.688 138.124 179.741 137.943L185.579 117.792C185.886 116.731 186.996 116.121 188.057 116.428C188.715 116.619 189.23 117.134 189.421 117.792Z" fill="#C2E8FF"/>
<path fill-rule="evenodd" clip-rule="evenodd" d="M187.5 113.662L196 140.5H179L187.5 113.662Z" stroke="#8CD3F8" stroke-width="3" stroke-linecap="round" stroke-linejoin="round"/>
<path fill-rule="evenodd" clip-rule="evenodd" d="M187.5 116.662C187.5 137.128 187.5 147.574 187.5 148C187.5 147.574 187.5 137.128 187.5 116.662Z" stroke="#8CD3F8" stroke-width="3" stroke-linecap="round"/>
<path fill-rule="evenodd" clip-rule="evenodd" d="M191.5 128.162C188.833 131.393 187.5 133.059 187.5 133.162C187.5 133.059 188.833 131.393 191.5 128.162Z" stroke="#8CD3F8" stroke-width="3" stroke-linecap="round" stroke-linejoin="round"/>
<path fill-rule="evenodd" clip-rule="evenodd" d="M170.324 98L182.576 139.939C182.886 140.999 182.277 142.11 181.217 142.42C181.035 142.473 180.846 142.5 180.656 142.5H159.992C158.887 142.5 157.992 141.605 157.992 140.5C157.992 140.31 158.019 140.121 158.072 139.939L170.324 98Z" fill="#C2E8FF"/>
<path fill-rule="evenodd" clip-rule="evenodd" d="M170.5 99L183.5 142.5H157.5L170.5 99Z" stroke="#8CD3F8" stroke-width="3" stroke-linecap="round" stroke-linejoin="round"/>
<path fill-rule="evenodd" clip-rule="evenodd" d="M170.5 102C170.5 131.249 170.5 146.249 170.5 147C170.5 146.249 170.5 131.249 170.5 102Z" stroke="#8CD3F8" stroke-width="3" stroke-linecap="round"/>
<path fill-rule="evenodd" clip-rule="evenodd" d="M165.824 118C168.824 120.873 170.324 122.373 170.324 122.5C170.324 122.373 168.824 120.873 165.824 118Z" stroke="#8CD3F8" stroke-width="3" stroke-linecap="round" stroke-linejoin="round"/>
<path fill-rule="evenodd" clip-rule="evenodd" d="M170.824 133C175.491 127.539 177.824 124.873 177.824 125C177.824 124.873 175.491 127.539 170.824 133Z" stroke="#8CD3F8" stroke-width="3" stroke-linecap="round" stroke-linejoin="round"/>
<path fill-rule="evenodd" clip-rule="evenodd" d="M121.171 93.7923L127.009 113.943C127.317 115.004 126.706 116.114 125.645 116.421C125.464 116.473 125.277 116.5 125.088 116.5H113.412C112.307 116.5 111.412 115.605 111.412 114.5C111.412 114.312 111.438 114.124 111.491 113.943L117.329 93.7923C117.636 92.7314 118.746 92.1205 119.807 92.4279C120.465 92.6187 120.98 93.1337 121.171 93.7923Z" fill="#C2E8FF"/>
<path fill-rule="evenodd" clip-rule="evenodd" d="M119.5 89.662L128.5 116.5H110.5L119.5 89.662Z" stroke="#8CD3F8" stroke-width="3" stroke-linecap="round" stroke-linejoin="round"/>
<path fill-rule="evenodd" clip-rule="evenodd" d="M119.5 92.25C119.5 111.157 119.5 120.824 119.5 121.25C119.5 120.824 119.5 111.157 119.5 92.25Z" stroke="#8CD3F8" stroke-width="3"/>
<path fill-rule="evenodd" clip-rule="evenodd" d="M124.25 106.662L119.961 112.227L124.25 106.662Z" stroke="#8CD3F8" stroke-width="3" stroke-linecap="round" stroke-linejoin="round"/>
<path d="M187.255 69.838C187.255 69.838 192.15 70.6881 190.884 75.644" stroke="#C2E8FF" stroke-width="3" stroke-linecap="round"/>
<path d="M197.883 74.4253C197.883 74.4253 194.199 71.0915 191.074 75.1406" stroke="#C2E8FF" stroke-width="3" stroke-linecap="round"/>
<path d="M197.604 60.7981C197.604 60.7981 201.856 58.2284 204.152 62.7995" stroke="#C2E8FF" stroke-width="3" stroke-linecap="round"/>
<path d="M209.008 57.7424C209.008 57.7424 204.041 57.6429 204.339 62.7494" stroke="#C2E8FF" stroke-width="3" stroke-linecap="round"/>
<path fill-rule="evenodd" clip-rule="evenodd" d="M161.098 45.236C153.111 35.7168 138.882 34.5059 129.318 42.5313C119.753 50.5567 118.475 64.7794 126.463 74.2985C134.45 83.8177 148.679 85.0287 158.243 77.0033C167.807 68.9779 169.086 54.7552 161.098 45.236Z" stroke="#C2E8FF" stroke-width="3" stroke-linecap="round" stroke-linejoin="round" stroke-dasharray="67.5 0.5 0.5 9"/>
<path fill-rule="evenodd" clip-rule="evenodd" d="M135.289 45.25C127.398 49.8063 124.711 59.9279 129.289 67.8571C133.867 75.7863 143.976 78.5206 151.868 73.9642C159.759 69.4079 162.446 59.2863 157.868 51.3571C153.29 43.4279 143.181 40.6936 135.289 45.25Z" stroke="#C2E8FF" stroke-width="3" stroke-linecap="round" stroke-linejoin="round" stroke-dasharray="53.5 5"/>
<path d="M143.5 70.6185C149.575 70.6185 154.5 65.6671 154.5 59.5592C154.5 53.4514 149.575 48.5 143.5 48.5C137.425 48.5 132.5 53.4514 132.5 59.5592C132.5 65.6671 137.425 70.6185 143.5 70.6185Z" fill="#C2E8FF" stroke="#8CD3F8" stroke-width="3"/>
<path fill-rule="evenodd" clip-rule="evenodd" d="M81.5 152.5L105.5 127.5C108.833 124.167 113.333 122.5 119 122.5C124.667 122.5 138.333 122.5 160 122.5C165 122.833 167.5 125.333 167.5 130C167 134.5 162.5 137.5 160 137.5C158.333 137.5 151 137.5 138 137.5C134 137.333 131.667 138.833 131 142C131 146.288 133.5 148 136.5 148.5H180.5C185.5 148.167 189.833 146.333 193.5 143C199 138 208.759 128.308 213 126C217.241 123.692 223.5 122 228 124.5C232.5 127 233 128.5 226 135C221.333 139.333 212.333 148 199 161C194.667 165.333 189.333 167.5 183 167.5C176.667 167.5 159 167.5 130 167.5C125.667 167.5 122 169.333 119 173" fill="white"/>
<path d="M81.5 152.5L105.5 127.5C108.833 124.167 113.333 122.5 119 122.5C124.667 122.5 138.333 122.5 160 122.5C165 122.833 167.5 125.333 167.5 130C167 134.5 162.5 137.5 160 137.5C158.333 137.5 151 137.5 138 137.5C134 137.333 131.667 138.833 131 142C131 146.288 133.5 148 136.5 148.5H180.5C185.5 148.167 189.833 146.333 193.5 143C199 138 208.759 128.308 213 126C217.241 123.692 223.5 122 228 124.5C232.5 127 233 128.5 226 135C221.333 139.333 212.333 148 199 161C194.667 165.333 189.333 167.5 183 167.5C176.667 167.5 159 167.5 130 167.5C125.667 167.5 122 169.333 119 173" stroke="#8CD3F8" stroke-width="3" stroke-linecap="round" stroke-linejoin="round"/>
</g>
<defs>
<clipPath id="clip0_5337_436">
<rect width="300" height="200" fill="white"/>
</clipPath>
</defs>
</svg>
