<svg width="300" height="200" viewBox="0 0 300 200" fill="none" xmlns="http://www.w3.org/2000/svg">
<g clip-path="url(#clip0_5337_382)">
<path d="M209 86.5403H218.5C218.139 83.8136 219.041 81.5326 221.204 79.6972C223.688 77.6506 226.637 78.1094 228.22 78.8156C229.804 79.5218 230.98 80.4921 231.796 82.323C232.141 83.0939 232.376 83.7461 232.5 84.2796" stroke="#C2E8FF" stroke-width="3" stroke-linecap="round"/>
<path d="M228.5 88.0475C229.028 86.2119 230.111 85.0118 231.75 84.4471C234.209 83.6001 236.54 84.7281 237.471 85.8631C238.402 86.9981 238.698 87.9098 238.873 88.8613C238.99 89.4957 239.033 90.2291 239 91.0617H241.082C243.018 91.5784 243.994 92.73 244.008 94.5167C244.032 97.7064 241.695 98.5001 240.5 98.5001H201" stroke="#C2E8FF" stroke-width="3" stroke-linecap="round"/>
<path d="M196 92.5H228.5" stroke="#C2E8FF" stroke-width="3" stroke-linecap="round"/>
<path d="M187 92.5H191" stroke="#C2E8FF" stroke-width="3" stroke-linecap="round"/>
<path fill-rule="evenodd" clip-rule="evenodd" d="M166.5 84L181.5 69L232.5 120" fill="white"/>
<path d="M64.5 119.5L132.5 51L181.5 99.5" stroke="#C2E8FF" stroke-width="3" stroke-linecap="round" stroke-linejoin="round"/>
<path d="M132.5 51.5V105L117.5 90L88.5 119.5" stroke="#C2E8FF" stroke-width="3" stroke-linecap="round" stroke-linejoin="round"/>
<path d="M166.5 84L181.5 69L232.5 120" stroke="#C2E8FF" stroke-width="3" stroke-linecap="round" stroke-linejoin="round"/>
<path fill-rule="evenodd" clip-rule="evenodd" d="M181.5 70.5C181.5 89.3326 181.5 98.9992 181.5 99.5C181.5 98.9992 181.5 89.3326 181.5 70.5Z" stroke="#C2E8FF" stroke-width="3" stroke-linecap="round" stroke-linejoin="round"/>
<path fill-rule="evenodd" clip-rule="evenodd" d="M161.924 72.5372L164.5 80.9999L162.183 79.518L158.676 76.6369L160.017 72.5187C160.188 71.9936 160.752 71.7065 161.277 71.8775C161.588 71.9786 161.829 72.2249 161.924 72.5372Z" fill="#C2E8FF"/>
<path fill-rule="evenodd" clip-rule="evenodd" d="M231.457 110.143L234 118.5H231.216L228.176 114.637L229.543 110.143C229.704 109.615 230.263 109.317 230.791 109.478C231.11 109.575 231.36 109.824 231.457 110.143Z" fill="#C2E8FF"/>
<path fill-rule="evenodd" clip-rule="evenodd" d="M63.9662 115.123L65 119H61L62.0338 115.123C62.1761 114.59 62.724 114.273 63.2577 114.415C63.6037 114.507 63.874 114.777 63.9662 115.123Z" fill="#C2E8FF"/>
<path fill-rule="evenodd" clip-rule="evenodd" d="M235.466 115.123L236.5 119H232.5L233.534 115.123C233.676 114.59 234.224 114.273 234.758 114.415C235.104 114.507 235.374 114.777 235.466 115.123Z" fill="#C2E8FF"/>
<path d="M121.43 142.966C117.808 143.719 115.56 140.105 115.56 140.105H115.555C115.555 140.105 113.841 143.077 110.319 143.077C106.944 143.077 105.092 140.105 105.092 140.105H105.086C105.086 140.105 103.374 143.077 99.8523 143.077C96.4764 143.077 94.6257 140.105 94.6257 140.105H94.6199C94.6199 140.105 91.7225 143.778 88.1788 143.025" stroke="#C2E8FF" stroke-width="3" stroke-linecap="round" stroke-linejoin="round"/>
<path d="M79.4297 135.181C75.8079 135.934 73.5597 132.319 73.5597 132.319H73.5553C73.5553 132.319 71.8406 135.292 68.3186 135.292C64.9441 135.292 63.092 132.319 63.092 132.319H63.0862C63.0862 132.319 61.3743 135.292 57.8523 135.292C54.4764 135.292 52.6257 132.319 52.6257 132.319H52.6199C52.6199 132.319 49.7225 135.993 46.1788 135.24" stroke="#C2E8FF" stroke-width="3" stroke-linecap="round" stroke-linejoin="round"/>
<path d="M110.947 135.181C107.325 135.934 105.077 132.319 105.077 132.319H105.073C105.073 132.319 103.358 135.292 99.8362 135.292C96.4616 135.292 94.6096 132.319 94.6096 132.319H94.6038C94.6038 132.319 92.8919 135.292 89.3699 135.292C85.9939 135.292 84.1433 132.319 84.1433 132.319H84.1375C84.1375 132.319 81.2401 135.993 77.6964 135.24" stroke="#C2E8FF" stroke-width="3" stroke-linecap="round" stroke-linejoin="round"/>
<path d="M31 120.5H140.5C133.212 121.991 129.379 125.991 129 132.5C129 141.843 136.968 145.5 140.5 145.5H162.5C167.208 145.5 172.272 147.42 172.272 152.615C172.272 157.81 167.734 160.5 163.5 160.5H159.5C157.251 160.5 154 161.864 154 165.5C154 169.136 157.241 170.5 159 170.5" stroke="#8CD3F8" stroke-width="3" stroke-linecap="round" stroke-linejoin="round"/>
<path d="M150.5 145.5H177.5C177.947 145.5 186.763 145.177 186.763 152.988C186.763 160.799 177.945 160.5 177.5 160.5H164" stroke="#8CD3F8" stroke-width="3"/>
<path d="M22 120.5H25" stroke="#8CD3F8" stroke-width="3" stroke-linecap="round"/>
<path d="M193.5 120.5H263.5" stroke="#8CD3F8" stroke-width="3" stroke-linecap="round"/>
<path d="M268.5 120.5H277.5" stroke="#8CD3F8" stroke-width="3" stroke-linecap="round"/>
<path fill-rule="evenodd" clip-rule="evenodd" d="M175.421 116.792L181.259 136.943C181.567 138.004 180.956 139.114 179.895 139.421C179.714 139.473 179.527 139.5 179.338 139.5H167.662C166.557 139.5 165.662 138.605 165.662 137.5C165.662 137.312 165.688 137.124 165.741 136.943L171.579 116.792C171.886 115.731 172.996 115.121 174.057 115.428C174.715 115.619 175.23 116.134 175.421 116.792Z" fill="#C2E8FF"/>
<path fill-rule="evenodd" clip-rule="evenodd" d="M173.5 112.662L182 139.5H165L173.5 112.662Z" stroke="#8CD3F8" stroke-width="3" stroke-linecap="round" stroke-linejoin="round"/>
<path fill-rule="evenodd" clip-rule="evenodd" d="M173.5 115.662C173.5 134.236 173.5 143.736 173.5 144.162C173.5 143.736 173.5 134.236 173.5 115.662Z" stroke="#8CD3F8" stroke-width="3" stroke-linecap="round" stroke-linejoin="round"/>
<path fill-rule="evenodd" clip-rule="evenodd" d="M177.5 127.162C174.833 130.393 173.5 132.059 173.5 132.162C173.5 132.059 174.833 130.393 177.5 127.162Z" stroke="#8CD3F8" stroke-width="3" stroke-linecap="round" stroke-linejoin="round"/>
<path fill-rule="evenodd" clip-rule="evenodd" d="M157.324 95L169.576 136.939C169.886 137.999 169.277 139.11 168.217 139.42C168.035 139.473 167.846 139.5 167.656 139.5H146.992C145.887 139.5 144.992 138.605 144.992 137.5C144.992 137.31 145.019 137.121 145.072 136.939L157.324 95Z" fill="#C2E8FF"/>
<path fill-rule="evenodd" clip-rule="evenodd" d="M157.5 96L170.5 139.5H144.5L157.5 96Z" stroke="#8CD3F8" stroke-width="3" stroke-linecap="round" stroke-linejoin="round"/>
<path fill-rule="evenodd" clip-rule="evenodd" d="M157.5 99C157.5 128.249 157.5 143.249 157.5 144C157.5 143.249 157.5 128.249 157.5 99Z" stroke="#8CD3F8" stroke-width="3" stroke-linecap="round" stroke-linejoin="round"/>
<path fill-rule="evenodd" clip-rule="evenodd" d="M151.824 117C155.491 120.539 157.324 122.373 157.324 122.5C157.324 122.373 155.491 120.539 151.824 117Z" stroke="#8CD3F8" stroke-width="3" stroke-linecap="round" stroke-linejoin="round"/>
<path fill-rule="evenodd" clip-rule="evenodd" d="M157.824 130C162.491 124.539 164.824 121.873 164.824 122C164.824 121.873 162.491 124.539 157.824 130Z" stroke="#8CD3F8" stroke-width="3" stroke-linecap="round" stroke-linejoin="round"/>
<path fill-rule="evenodd" clip-rule="evenodd" d="M108.458 72.209L111.658 75.8564L104.405 82.7041H97.0918L108.458 72.209Z" fill="white"/>
<path d="M79 70.5403H88.5C88.1395 67.8136 89.0408 65.5326 91.2039 63.6972C93.6877 61.6506 96.6367 62.1094 98.2205 62.8156C99.8042 63.5218 100.98 64.4921 101.796 66.323C102.141 67.0939 102.376 67.7461 102.5 68.2796" stroke="#C2E8FF" stroke-width="3" stroke-linecap="round"/>
<path d="M98.5 72.0475C99.0279 70.2119 100.111 69.0118 101.75 68.4471C104.209 67.6001 106.54 68.7281 107.471 69.8631C108.402 70.9981 108.698 71.9098 108.873 72.8613C108.99 73.4957 109.033 74.2291 109 75.0617H111.082C113.018 75.5784 113.994 76.73 114.008 78.5167C114.032 81.7064 111.695 82.5001 110.5 82.5001H71" stroke="#C2E8FF" stroke-width="3" stroke-linecap="round"/>
<path d="M66 76.5H98.5002" stroke="#C2E8FF" stroke-width="3" stroke-linecap="round"/>
<path d="M57 76.5H61" stroke="#C2E8FF" stroke-width="3" stroke-linecap="round"/>
</g>
<defs>
<clipPath id="clip0_5337_382">
<rect width="300" height="200" fill="white"/>
</clipPath>
</defs>
</svg>
