<svg width="300" height="200" viewBox="0 0 300 200" fill="none" xmlns="http://www.w3.org/2000/svg">
<g clip-path="url(#clip0_5337_134)">
<path d="M253.5 94.5L230.5 76.5L213.5 90" stroke="#C2E8FF" stroke-width="3" stroke-linecap="round" stroke-linejoin="round"/>
<path d="M218.5 85L213.5 81L197.5 94.5" stroke="#C2E8FF" stroke-width="3" stroke-linecap="round" stroke-linejoin="round"/>
<path d="M266.5 94.5H188.5" stroke="#C2E8FF" stroke-width="3" stroke-linecap="round"/>
<path fill-rule="evenodd" clip-rule="evenodd" d="M252.054 92.5536L248.896 89.0033L249.14 87.5243C249.273 86.7147 249.816 86.2217 250.352 86.4232C250.697 86.5529 250.97 86.9498 251.07 87.4654L252.054 92.5536Z" fill="#C2E8FF"/>
<path fill-rule="evenodd" clip-rule="evenodd" d="M256.361 94.3594L254.092 94.1771L251.481 91.7014L252.418 86.0136C252.551 85.204 253.094 84.711 253.63 84.9125C253.975 85.0422 254.248 85.4391 254.348 85.9547L256.361 94.3594Z" fill="#C2E8FF"/>
<path fill-rule="evenodd" clip-rule="evenodd" d="M196.461 87.7595L194.898 95L199.094 91.4148L198.422 87.7883C198.322 87.2453 197.8 86.8867 197.257 86.9873C196.86 87.0608 196.547 87.3653 196.461 87.7595Z" fill="#C2E8FF"/>
<path d="M157 94.5H163" stroke="#C2E8FF" stroke-width="3" stroke-linecap="round"/>
<path d="M35.5 94.5H150.5" stroke="#C2E8FF" stroke-width="3" stroke-linecap="round"/>
<path fill-rule="evenodd" clip-rule="evenodd" d="M51.4102 83.1633L52.6963 89.2148L46.7266 94.3222L49.4606 83.1338C49.5917 82.5973 50.1329 82.2686 50.6694 82.3997C51.0425 82.4909 51.3304 82.7876 51.4102 83.1633Z" fill="#C2E8FF"/>
<path fill-rule="evenodd" clip-rule="evenodd" d="M135.963 82.4392L138.5 91.5L132.885 86.5532L134.037 82.4392C134.186 81.9074 134.738 81.5969 135.27 81.7458C135.606 81.84 135.869 82.1028 135.963 82.4392Z" fill="#C2E8FF"/>
<path fill-rule="evenodd" clip-rule="evenodd" d="M54.9662 85.4909L55.8008 88.6205L54.8535 89.3675H52L53.0338 85.4909C53.1761 84.9572 53.724 84.64 54.2577 84.7823C54.6037 84.8746 54.874 85.1448 54.9662 85.4909Z" fill="#C2E8FF"/>
<path d="M48 94.5L85.5 64L114.25 86.5" stroke="#C2E8FF" stroke-width="3" stroke-linecap="round" stroke-linejoin="round"/>
<path d="M105.5 79.4717L114.5 72L141.5 94" stroke="#C2E8FF" stroke-width="3" stroke-linecap="round" stroke-linejoin="round"/>
<path d="M94 43.5403H103.5C103.139 40.8136 104.041 38.5326 106.204 36.6972C108.688 34.6506 111.637 35.1094 113.22 35.8156C114.804 36.5218 115.98 37.4921 116.796 39.323C117.141 40.0939 117.376 40.7461 117.5 41.2796" stroke="#C2E8FF" stroke-width="3" stroke-linecap="round"/>
<path d="M113.5 45.0474C114.028 43.2118 115.111 42.0117 116.75 41.447C119.209 40.6 121.54 41.728 122.471 42.863C123.402 43.998 123.698 44.9098 123.873 45.8613C123.99 46.4956 124.033 47.2291 124 48.0616H126.082C128.018 48.5783 128.994 49.73 129.008 51.5166C129.032 54.7063 126.695 55.5 125.5 55.5H86" stroke="#C2E8FF" stroke-width="3" stroke-linecap="round"/>
<path d="M81 49.5H113.5" stroke="#C2E8FF" stroke-width="3" stroke-linecap="round"/>
<path d="M72 49.5H76" stroke="#C2E8FF" stroke-width="3" stroke-linecap="round"/>
<path d="M171 62.5403H180.5C180.139 59.8136 181.041 57.5326 183.204 55.6972C185.688 53.6506 188.637 54.1094 190.22 54.8156C191.804 55.5218 192.98 56.4921 193.796 58.323C194.141 59.0939 194.376 59.7461 194.5 60.2796" stroke="#C2E8FF" stroke-width="3" stroke-linecap="round"/>
<path d="M190.5 64.0474C191.028 62.2118 192.111 61.0117 193.75 60.447C196.209 59.6 198.54 60.728 199.471 61.863C200.402 62.998 200.698 63.9098 200.873 64.8613C200.99 65.4956 201.033 66.2291 201 67.0616H203.082C205.018 67.5783 205.994 68.73 206.008 70.5166C206.032 73.7063 203.695 74.5 202.5 74.5H163" stroke="#C2E8FF" stroke-width="3" stroke-linecap="round"/>
<path d="M158 68.5H190.5" stroke="#C2E8FF" stroke-width="3" stroke-linecap="round"/>
<path d="M149 68.5H153" stroke="#C2E8FF" stroke-width="3" stroke-linecap="round"/>
<path d="M175.5 118.895V124.92" stroke="#8CD3F8" stroke-width="3" stroke-linecap="round"/>
<path d="M175.5 112.895V114.42" stroke="#8CD3F8" stroke-width="3" stroke-linecap="round"/>
<path d="M175.5 37.886V93.4206" stroke="#8CD3F8" stroke-width="3" stroke-linecap="round"/>
<path d="M175.5 131C177.157 131 178.5 129.657 178.5 128C178.5 126.343 177.157 125 175.5 125C173.843 125 172.5 126.343 172.5 128C172.5 129.657 173.843 131 175.5 131Z" stroke="#8CD3F8" stroke-width="3"/>
<path d="M175.5 131.5C175.5 137.5 175.5 142.333 175.5 146C175.5 151.5 165.5 151.5 165.5 146C165.5 142.333 165.5 140.141 165.5 139.424L168.75 143" stroke="#8CD3F8" stroke-width="3" stroke-linecap="round"/>
<path fill-rule="evenodd" clip-rule="evenodd" d="M175.5 101.5C178.814 101.5 181.5 100.314 181.5 99C181.5 95.6863 178.814 93 175.5 93C172.186 93 169.5 95.6863 169.5 99C169.5 100.814 172.186 101.5 175.5 101.5Z" fill="#8CD3F8"/>
<path d="M89.7508 107.361C86.1291 108.115 83.8808 104.5 83.8808 104.5H83.8765C83.8765 104.5 82.1618 107.473 78.6398 107.473C75.2652 107.473 73.4131 104.5 73.4131 104.5H73.4074C73.4074 104.5 71.6955 107.473 68.1735 107.473C64.7975 107.473 62.9469 104.5 62.9469 104.5H62.9411C62.9411 104.5 60.0437 108.174 56.5 107.421" stroke="#C2E8FF" stroke-width="3" stroke-linecap="round" stroke-linejoin="round"/>
<path d="M121.251 107.361C117.629 108.115 115.381 104.5 115.381 104.5H115.377C115.377 104.5 113.662 107.473 110.14 107.473C106.765 107.473 104.913 104.5 104.913 104.5H104.907C104.907 104.5 103.196 107.473 99.6735 107.473C96.2975 107.473 94.4469 104.5 94.4469 104.5H94.4411C94.4411 104.5 91.5437 108.174 88 107.421" stroke="#C2E8FF" stroke-width="3" stroke-linecap="round" stroke-linejoin="round"/>
<path d="M152.751 107.361C149.129 108.115 146.881 104.5 146.881 104.5H146.877C146.877 104.5 145.162 107.473 141.64 107.473C138.265 107.473 136.413 104.5 136.413 104.5H136.407C136.407 104.5 134.696 107.473 131.174 107.473C127.798 107.473 125.947 104.5 125.947 104.5H125.941C125.941 104.5 123.044 108.174 119.5 107.421" stroke="#C2E8FF" stroke-width="3" stroke-linecap="round" stroke-linejoin="round"/>
<path d="M186.251 107.361C182.629 108.115 180.381 104.5 180.381 104.5H180.377C180.377 104.5 178.662 107.473 175.14 107.473C171.765 107.473 169.913 104.5 169.913 104.5H169.907C169.907 104.5 168.196 107.473 164.674 107.473C161.298 107.473 159.447 104.5 159.447 104.5H159.441C159.441 104.5 156.544 108.174 153 107.421" stroke="#C2E8FF" stroke-width="3" stroke-linecap="round" stroke-linejoin="round"/>
<path d="M217.751 107.361C214.129 108.115 211.881 104.5 211.881 104.5H211.877C211.877 104.5 210.162 107.473 206.64 107.473C203.265 107.473 201.413 104.5 201.413 104.5H201.407C201.407 104.5 199.696 107.473 196.174 107.473C192.798 107.473 190.947 104.5 190.947 104.5H190.941C190.941 104.5 188.044 108.174 184.5 107.421" stroke="#C2E8FF" stroke-width="3" stroke-linecap="round" stroke-linejoin="round"/>
<path d="M161.251 117.361C157.629 118.115 155.381 114.5 155.381 114.5H155.377C155.377 114.5 153.662 117.473 150.14 117.473C146.765 117.473 144.913 114.5 144.913 114.5H144.907C144.907 114.5 143.196 117.473 139.674 117.473C136.298 117.473 134.447 114.5 134.447 114.5H134.441C134.441 114.5 131.544 118.174 128 117.421" stroke="#C2E8FF" stroke-width="3" stroke-linecap="round" stroke-linejoin="round"/>
<path d="M259.251 107.361C255.629 108.115 253.381 104.5 253.381 104.5H253.377C253.377 104.5 251.662 107.473 248.14 107.473C244.765 107.473 242.913 104.5 242.913 104.5H242.907C242.907 104.5 241.196 107.473 237.674 107.473C234.298 107.473 232.447 104.5 232.447 104.5H232.441C232.441 104.5 229.544 108.174 226 107.421" stroke="#C2E8FF" stroke-width="3" stroke-linecap="round" stroke-linejoin="round"/>
<path d="M224.251 117.361C220.629 118.115 218.381 114.5 218.381 114.5H218.377C218.377 114.5 216.662 117.473 213.14 117.473C209.765 117.473 207.913 114.5 207.913 114.5H207.907C207.907 114.5 206.196 117.473 202.674 117.473C199.298 117.473 197.447 114.5 197.447 114.5H197.441C197.441 114.5 194.544 118.174 191 117.421" stroke="#C2E8FF" stroke-width="3" stroke-linecap="round" stroke-linejoin="round"/>
<path fill-rule="evenodd" clip-rule="evenodd" d="M187.475 155.869H242.724L246.124 158H187.136V156.941L187.475 155.869Z" fill="white"/>
<path d="M191 148C192.381 148 193.5 146.881 193.5 145.5C193.5 144.119 192.381 143 191 143C189.619 143 188.5 144.119 188.5 145.5C188.5 146.881 189.619 148 191 148Z" stroke="#C2E8FF" stroke-width="3"/>
<path d="M201.5 140.5C203.985 140.5 206 138.485 206 136C206 133.515 203.985 131.5 201.5 131.5C199.015 131.5 197 133.515 197 136C197 138.485 199.015 140.5 201.5 140.5Z" stroke="#C2E8FF" stroke-width="3"/>
<path fill-rule="evenodd" clip-rule="evenodd" d="M186.781 158H246.151L248.432 160L249.528 163.736L243.838 170.203H197.884L193.13 167.916L190.064 165.149L186.781 158Z" fill="#C2E8FF"/>
<path fill-rule="evenodd" clip-rule="evenodd" d="M190.428 154.5H237.814C242.222 154.5 246.373 156.577 249.017 160.105L250.25 161.75L248.998 163.536C246.377 167.274 242.099 169.5 237.534 169.5H202.166C197.932 169.403 194.679 168.401 192.408 166.496C190.689 165.054 189.095 162.412 187.626 158.571C187.034 157.024 187.809 155.29 189.357 154.698C189.699 154.567 190.062 154.5 190.428 154.5Z" stroke="#8CD3F8" stroke-width="3"/>
<path fill-rule="evenodd" clip-rule="evenodd" d="M252.508 157.508C252.508 155.026 253.488 152.737 255.508 150.597C257.528 152.737 258.508 155.026 258.508 157.508C258.508 159.989 257.528 162.279 255.508 164.418C253.488 162.279 252.508 159.989 252.508 157.508Z" fill="#8CD3F8"/>
<path fill-rule="evenodd" clip-rule="evenodd" d="M252.508 165.508C252.508 167.989 253.488 170.278 255.508 172.418C257.528 170.278 258.508 167.989 258.508 165.508C258.508 163.026 257.528 160.737 255.508 158.597C253.488 160.737 252.508 163.026 252.508 165.508Z" fill="#8CD3F8"/>
<path fill-rule="evenodd" clip-rule="evenodd" d="M227 145.081V154C227 155.105 226.104 156 225 156H219.441C218.336 156 217.441 155.105 217.441 154C217.441 153.512 217.62 153.04 217.943 152.674L225.251 144.418C225.617 144.005 226.249 143.966 226.663 144.332C226.877 144.522 227 144.795 227 145.081Z" fill="#8CD3F8"/>
<path fill-rule="evenodd" clip-rule="evenodd" d="M211.5 174.111V170C211.5 168.895 210.605 168 209.5 168H207.317C206.344 168 205.556 168.789 205.556 169.762C205.556 170.222 205.735 170.663 206.057 170.992L209.785 174.809C210.17 175.204 210.804 175.212 211.199 174.826C211.391 174.638 211.5 174.38 211.5 174.111Z" fill="#8CD3F8"/>
<path fill-rule="evenodd" clip-rule="evenodd" d="M236.5 174.111V170C236.5 168.895 235.605 168 234.5 168H232.317C231.344 168 230.556 168.789 230.556 169.762C230.556 170.222 230.735 170.663 231.057 170.992L234.785 174.809C235.17 175.204 235.804 175.212 236.199 174.826C236.391 174.638 236.5 174.38 236.5 174.111Z" fill="#8CD3F8"/>
<path d="M204 154.597C205.333 156.866 206 159.333 206 162C206 164.667 205.333 167.333 204 170" stroke="#8CD3F8" stroke-width="3"/>
<path d="M206 161.5H249.5" stroke="#8CD3F8" stroke-width="3" stroke-linecap="round"/>
<path d="M197.5 162.5C198.605 162.5 199.5 161.605 199.5 160.5C199.5 159.395 198.605 158.5 197.5 158.5C196.395 158.5 195.5 159.395 195.5 160.5C195.5 161.605 196.395 162.5 197.5 162.5Z" fill="#8CD3F8"/>
<path fill-rule="evenodd" clip-rule="evenodd" d="M103.808 137.755L108.091 133.973L149.441 132.988L147.866 138.318L103.808 137.755Z" fill="white"/>
<path fill-rule="evenodd" clip-rule="evenodd" d="M103.355 138.505C104.205 137.511 104.732 137.011 104.937 137.005C105.142 136.998 119.648 136.998 148.456 137.005L148.812 138.505L146.264 143.418L138.86 145.792C126.273 145.833 116.814 145.922 110.483 146.059L107.397 145.737L104.508 143.418L103.355 138.505Z" fill="#C2E8FF"/>
<path fill-rule="evenodd" clip-rule="evenodd" d="M149.451 133.5H113.186C108.818 133.5 104.765 135.773 102.488 139.5C104.765 143.227 108.818 145.5 113.186 145.5H139.265C142.601 145.12 145.026 143.809 146.538 141.567C148.051 139.325 149.022 136.636 149.451 133.5Z" stroke="#8CD3F8" stroke-width="3" stroke-linecap="round" stroke-linejoin="round"/>
<path fill-rule="evenodd" clip-rule="evenodd" d="M100.997 136.5C100.997 134.729 100.263 133.096 98.7499 131.569C97.2365 133.096 96.5024 134.729 96.5024 136.5C96.5024 138.271 97.2365 139.904 98.7499 141.431C100.263 139.904 100.997 138.271 100.997 136.5Z" fill="#8CD3F8"/>
<path fill-rule="evenodd" clip-rule="evenodd" d="M100.997 143C100.997 144.771 100.263 146.404 98.7499 147.931C97.2365 146.404 96.5024 144.771 96.5024 143C96.5024 141.229 97.2365 139.596 98.7499 138.069C100.263 139.596 100.997 141.229 100.997 143Z" fill="#8CD3F8"/>
<path fill-rule="evenodd" clip-rule="evenodd" d="M120 126.891V134H128.958L121.733 126.211C121.357 125.806 120.725 125.783 120.32 126.158C120.116 126.347 120 126.613 120 126.891Z" fill="#8CD3F8"/>
<path fill-rule="evenodd" clip-rule="evenodd" d="M131 149.163V147.5C131 146.395 131.895 145.5 133 145.5H133.988C134.683 145.5 135.246 146.063 135.246 146.758C135.246 147.087 135.117 147.402 134.888 147.637L132.715 149.862C132.329 150.257 131.696 150.265 131.301 149.879C131.109 149.691 131 149.433 131 149.163Z" fill="#8CD3F8"/>
<path fill-rule="evenodd" clip-rule="evenodd" d="M112 149.163V147.5C112 146.395 112.895 145.5 114 145.5H114.988C115.683 145.5 116.246 146.063 116.246 146.758C116.246 147.087 116.117 147.402 115.888 147.637L113.715 149.862C113.329 150.257 112.696 150.265 112.301 149.879C112.109 149.691 112 149.433 112 149.163Z" fill="#8CD3F8"/>
<path d="M137.5 134C136.5 135.917 136 137.833 136 139.75C136 141.667 136.5 143.583 137.5 145.5" stroke="#8CD3F8" stroke-width="3"/>
<path d="M135 139.5H103.5" stroke="#8CD3F8" stroke-width="3" stroke-linecap="round"/>
<path d="M142.5 139.5C141.672 139.5 141 138.828 141 138C141 137.172 141.672 136.5 142.5 136.5C143.328 136.5 144 137.172 144 138C144 138.828 143.328 139.5 142.5 139.5Z" fill="#8CD3F8"/>
<path fill-rule="evenodd" clip-rule="evenodd" d="M83.8079 167.755L88.0906 163.973L129.441 162.988L127.866 168.318L83.8079 167.755Z" fill="white"/>
<path fill-rule="evenodd" clip-rule="evenodd" d="M83.355 168.505C84.2051 167.511 84.7325 167.011 84.9373 167.005C85.1421 166.998 99.6484 166.998 128.456 167.005L128.812 168.505L126.264 173.418L118.86 175.792C106.273 175.833 96.8143 175.922 90.4828 176.059L87.3969 175.737L84.5079 173.418L83.355 168.505Z" fill="#C2E8FF"/>
<path fill-rule="evenodd" clip-rule="evenodd" d="M129.451 163.5H93.1859C88.8182 163.5 84.7652 165.773 82.4876 169.5C84.7652 173.227 88.8182 175.5 93.1859 175.5H119.265C122.601 175.12 125.026 173.809 126.538 171.567C128.051 169.325 129.022 166.636 129.451 163.5Z" stroke="#8CD3F8" stroke-width="3" stroke-linecap="round" stroke-linejoin="round"/>
<path fill-rule="evenodd" clip-rule="evenodd" d="M80.9974 166.5C80.9974 164.729 80.2633 163.096 78.7499 161.569C77.2365 163.096 76.5024 164.729 76.5024 166.5C76.5024 168.271 77.2365 169.904 78.7499 171.431C80.2633 169.904 80.9974 168.271 80.9974 166.5Z" fill="#8CD3F8"/>
<path fill-rule="evenodd" clip-rule="evenodd" d="M80.9974 173C80.9974 174.771 80.2633 176.404 78.7499 177.931C77.2365 176.404 76.5024 174.771 76.5024 173C76.5024 171.229 77.2365 169.596 78.7499 168.069C80.2633 169.596 80.9974 171.229 80.9974 173Z" fill="#8CD3F8"/>
<path fill-rule="evenodd" clip-rule="evenodd" d="M99.9999 156.891V164H108.958L101.733 156.211C101.357 155.806 100.725 155.783 100.32 156.158C100.116 156.347 99.9999 156.613 99.9999 156.891Z" fill="#8CD3F8"/>
<path fill-rule="evenodd" clip-rule="evenodd" d="M111 179.163V177.5C111 176.395 111.895 175.5 113 175.5H113.988C114.683 175.5 115.246 176.063 115.246 176.758C115.246 177.087 115.117 177.402 114.888 177.637L112.715 179.862C112.329 180.257 111.696 180.265 111.301 179.879C111.109 179.691 111 179.433 111 179.163Z" fill="#8CD3F8"/>
<path fill-rule="evenodd" clip-rule="evenodd" d="M91.9999 179.163V177.5C91.9999 176.395 92.8954 175.5 93.9999 175.5H94.9877C95.6826 175.5 96.246 176.063 96.246 176.758C96.246 177.087 96.1175 177.402 95.8879 177.637L93.7154 179.862C93.3295 180.257 92.6964 180.265 92.3013 179.879C92.1086 179.691 91.9999 179.433 91.9999 179.163Z" fill="#8CD3F8"/>
<path d="M117.5 164C116.5 165.917 116 167.833 116 169.75C116 171.667 116.5 173.583 117.5 175.5" stroke="#8CD3F8" stroke-width="3"/>
<path d="M115 169.5H83.5" stroke="#8CD3F8" stroke-width="3" stroke-linecap="round"/>
<path d="M122.5 169.5C121.672 169.5 121 168.828 121 168C121 167.172 121.672 166.5 122.5 166.5C123.328 166.5 124 167.172 124 168C124 168.828 123.328 169.5 122.5 169.5Z" fill="#8CD3F8"/>
</g>
<defs>
<clipPath id="clip0_5337_134">
<rect width="300" height="200" fill="white"/>
</clipPath>
</defs>
</svg>
