<svg width="300" height="200" viewBox="0 0 300 200" fill="none" xmlns="http://www.w3.org/2000/svg">
<g clip-path="url(#clip0_5337_229)">
<path fill-rule="evenodd" clip-rule="evenodd" d="M108.458 86.209L111.658 89.8564L104.405 96.7041H97.0918L108.458 86.209Z" fill="white"/>
<path d="M79 84.5403H88.5C88.1395 81.8136 89.0408 79.5326 91.2039 77.6972C93.6877 75.6506 96.6367 76.1094 98.2205 76.8156C99.8042 77.5218 100.98 78.4921 101.796 80.323C102.141 81.0939 102.376 81.7461 102.5 82.2796" stroke="#C2E8FF" stroke-width="3" stroke-linecap="round"/>
<path d="M98.5 86.0475C99.0279 84.2119 100.111 83.0118 101.75 82.4471C104.209 81.6001 106.54 82.7281 107.471 83.8631C108.402 84.9981 108.698 85.9098 108.873 86.8613C108.99 87.4957 109.033 88.2291 109 89.0617H111.082C113.018 89.5784 113.994 90.73 114.008 92.5167C114.032 95.7064 111.695 96.5001 110.5 96.5001H71" stroke="#C2E8FF" stroke-width="3" stroke-linecap="round"/>
<path d="M66 90.5H98.5002" stroke="#C2E8FF" stroke-width="3" stroke-linecap="round"/>
<path d="M57 90.5H61" stroke="#C2E8FF" stroke-width="3" stroke-linecap="round"/>
<path d="M213 100.54H222.5C222.139 97.8136 223.041 95.5326 225.204 93.6972C227.688 91.6506 230.637 92.1094 232.22 92.8156C233.804 93.5218 234.98 94.4921 235.796 96.323C236.141 97.0939 236.376 97.7461 236.5 98.2796" stroke="#C2E8FF" stroke-width="3" stroke-linecap="round"/>
<path d="M232.5 102.047C233.028 100.212 234.111 99.0118 235.75 98.4471C238.209 97.6001 240.54 98.7281 241.471 99.8631C242.402 100.998 242.698 101.91 242.873 102.861C242.99 103.496 243.033 104.229 243 105.062H245.082C247.018 105.578 247.994 106.73 248.008 108.517C248.032 111.706 245.695 112.5 244.5 112.5H205" stroke="#C2E8FF" stroke-width="3" stroke-linecap="round"/>
<path d="M200 106.5H232.5" stroke="#C2E8FF" stroke-width="3" stroke-linecap="round"/>
<path d="M191 106.5H195" stroke="#C2E8FF" stroke-width="3" stroke-linecap="round"/>
<path d="M183 142L134.5 93.5L99.5 128" stroke="#C2E8FF" stroke-width="3" stroke-linecap="round" stroke-linejoin="round"/>
<path d="M110.5 116.5L99.5 106L62.5 143" stroke="#C2E8FF" stroke-width="3" stroke-linecap="round" stroke-linejoin="round"/>
<path fill-rule="evenodd" clip-rule="evenodd" d="M108.924 108.537L111.5 117L109.183 115.518L105.676 112.637L107.017 108.519C107.188 107.994 107.752 107.707 108.277 107.878C108.588 107.979 108.829 108.225 108.924 108.537Z" fill="#C2E8FF"/>
<path fill-rule="evenodd" clip-rule="evenodd" d="M103.481 148.482C102.113 145.257 98.9724 143.002 95.317 143.002C94.3099 143.002 93.3418 143.173 92.4392 143.488C90.7258 140.835 87.7837 139.085 84.4419 139.085C81.2457 139.085 78.4151 140.686 76.6755 143.147C75.9795 142.734 75.1712 142.498 74.3089 142.498C73.5542 142.498 72.8408 142.679 72.2079 143.001C70.4988 138.544 66.255 135.388 61.2903 135.388C56.7317 135.388 52.7808 138.048 50.8419 141.934C49.6956 141.384 48.4158 141.076 47.0657 141.076C42.7187 141.076 39.1 144.266 38.3239 148.482H103.481Z" fill="#C2E8FF"/>
<path d="M33 147.5H98" stroke="#C2E8FF" stroke-width="3" stroke-linecap="round"/>
<path fill-rule="evenodd" clip-rule="evenodd" d="M258.361 148.5H175.697C175.664 148.132 175.647 147.759 175.647 147.382C175.647 140.634 181.04 135.164 187.693 135.164C189.521 135.164 191.254 135.577 192.807 136.316C195.432 131.099 200.782 127.527 206.956 127.527C213.679 127.527 219.425 131.764 221.74 137.748C222.597 137.316 223.563 137.073 224.585 137.073C225.753 137.073 226.847 137.39 227.79 137.944C230.145 134.641 233.978 132.491 238.307 132.491C244.668 132.491 249.96 137.135 251.064 143.261C251.39 143.209 251.725 143.182 252.066 143.182C255.205 143.182 257.817 145.475 258.361 148.5Z" fill="#C2E8FF"/>
<path d="M192 147.5H262.5" stroke="#C2E8FF" stroke-width="3" stroke-linecap="round"/>
<path d="M267 147.5H272.5" stroke="#C2E8FF" stroke-width="3" stroke-linecap="round"/>
<path fill-rule="evenodd" clip-rule="evenodd" d="M245.421 121.792L251.259 141.943C251.567 143.004 250.956 144.114 249.895 144.421C249.714 144.473 249.527 144.5 249.338 144.5H237.662C236.557 144.5 235.662 143.605 235.662 142.5C235.662 142.312 235.688 142.124 235.741 141.943L241.579 121.792C241.886 120.731 242.996 120.121 244.057 120.428C244.715 120.619 245.23 121.134 245.421 121.792Z" fill="#C2E8FF"/>
<path fill-rule="evenodd" clip-rule="evenodd" d="M243.5 117.662L252 144.5H235L243.5 117.662Z" stroke="#8CD3F8" stroke-width="3" stroke-linecap="round" stroke-linejoin="round"/>
<path fill-rule="evenodd" clip-rule="evenodd" d="M243.5 120.662C243.5 139.128 243.5 148.574 243.5 149C243.5 148.574 243.5 139.128 243.5 120.662Z" stroke="#8CD3F8" stroke-width="3" stroke-linecap="round"/>
<path fill-rule="evenodd" clip-rule="evenodd" d="M247.5 132.162C244.833 135.393 243.5 137.059 243.5 137.162C243.5 137.059 244.833 135.393 247.5 132.162Z" stroke="#8CD3F8" stroke-width="3" stroke-linecap="round" stroke-linejoin="round"/>
<path fill-rule="evenodd" clip-rule="evenodd" d="M227.324 100L239.576 141.939C239.886 142.999 239.277 144.11 238.217 144.42C238.035 144.473 237.846 144.5 237.656 144.5H216.992C215.887 144.5 214.992 143.605 214.992 142.5C214.992 142.31 215.019 142.121 215.072 141.939L227.324 100Z" fill="#C2E8FF"/>
<path fill-rule="evenodd" clip-rule="evenodd" d="M227.5 101L240.5 144.5H214.5L227.5 101Z" stroke="#8CD3F8" stroke-width="3" stroke-linecap="round" stroke-linejoin="round"/>
<path fill-rule="evenodd" clip-rule="evenodd" d="M227.5 104C227.5 133.249 227.5 148.249 227.5 149C227.5 148.249 227.5 133.249 227.5 104Z" stroke="#8CD3F8" stroke-width="3" stroke-linecap="round"/>
<path fill-rule="evenodd" clip-rule="evenodd" d="M221.824 122C225.491 125.539 227.324 127.373 227.324 127.5C227.324 127.373 225.491 125.539 221.824 122Z" stroke="#8CD3F8" stroke-width="3" stroke-linecap="round" stroke-linejoin="round"/>
<path fill-rule="evenodd" clip-rule="evenodd" d="M227.824 135C232.491 129.539 234.824 126.873 234.824 127C234.824 126.873 232.491 129.539 227.824 135Z" stroke="#8CD3F8" stroke-width="3" stroke-linecap="round" stroke-linejoin="round"/>
<path fill-rule="evenodd" clip-rule="evenodd" d="M72.171 121.542L78.0093 141.693C78.3167 142.754 77.7058 143.864 76.6449 144.171C76.464 144.223 76.2767 144.25 76.0883 144.25H64.4117C63.3072 144.25 62.4117 143.355 62.4117 142.25C62.4117 142.062 62.4383 141.874 62.4907 141.693L68.329 121.542C68.6364 120.481 69.7457 119.871 70.8066 120.178C71.4653 120.369 71.9802 120.884 72.171 121.542Z" fill="#C2E8FF"/>
<path fill-rule="evenodd" clip-rule="evenodd" d="M70.25 117.412L79.5 144H61.5L70.25 117.412Z" stroke="#8CD3F8" stroke-width="3" stroke-linecap="round" stroke-linejoin="round"/>
<path fill-rule="evenodd" clip-rule="evenodd" d="M70.5 120C70.5 138.907 70.5 148.574 70.5 149C70.5 148.574 70.5 138.907 70.5 120Z" stroke="#8CD3F8" stroke-width="3"/>
<path fill-rule="evenodd" clip-rule="evenodd" d="M75.25 134.412L70.9614 139.977L75.25 134.412Z" stroke="#8CD3F8" stroke-width="3" stroke-linecap="round" stroke-linejoin="round"/>
<path fill-rule="evenodd" clip-rule="evenodd" d="M192.098 58.236C184.111 48.7168 169.882 47.5059 160.318 55.5313C150.753 63.5567 149.475 77.7794 157.463 87.2985C165.45 96.8177 179.679 98.0287 189.243 90.0033C198.807 81.9779 200.086 67.7552 192.098 58.236Z" stroke="#C2E8FF" stroke-width="3" stroke-linecap="round" stroke-linejoin="round" stroke-dasharray="67.5 0.5 0.5 9"/>
<path fill-rule="evenodd" clip-rule="evenodd" d="M166.289 58.25C158.398 62.8063 155.711 72.9279 160.289 80.8571C164.867 88.7863 174.976 91.5206 182.868 86.9642C190.759 82.4079 193.446 72.2863 188.868 64.3571C184.29 56.4279 174.181 53.6936 166.289 58.25Z" stroke="#C2E8FF" stroke-width="3" stroke-linecap="round" stroke-linejoin="round" stroke-dasharray="53.5 5"/>
<path d="M174.5 83.6185C180.575 83.6185 185.5 78.6671 185.5 72.5592C185.5 66.4514 180.575 61.5 174.5 61.5C168.425 61.5 163.5 66.4514 163.5 72.5592C163.5 78.6671 168.425 83.6185 174.5 83.6185Z" fill="#C2E8FF" stroke="#8CD3F8" stroke-width="3"/>
<path d="M121.5 132.75C124.814 132.75 127.5 130.064 127.5 126.75C127.5 123.436 124.814 120.75 121.5 120.75C118.186 120.75 115.5 123.436 115.5 126.75C115.5 130.064 118.186 132.75 121.5 132.75Z" fill="white"/>
<path d="M135.5 132.75C138.814 132.75 141.5 130.064 141.5 126.75C141.5 123.436 138.814 120.75 135.5 120.75C132.186 120.75 129.5 123.436 129.5 126.75C129.5 130.064 132.186 132.75 135.5 132.75Z" fill="white"/>
<path d="M137.5 114.75L133.5 123.75" stroke="#8CD3F8" stroke-width="3" stroke-linecap="round" stroke-linejoin="round"/>
<path d="M120.5 132C123.538 132 126 129.538 126 126.5C126 123.462 123.538 121 120.5 121C117.462 121 115 123.462 115 126.5C115 129.538 117.462 132 120.5 132Z" stroke="#8CD3F8" stroke-width="3"/>
<path d="M135.5 132C138.538 132 141 129.538 141 126.5C141 123.462 138.538 121 135.5 121C132.462 121 130 123.462 130 126.5C130 129.538 132.462 132 135.5 132Z" stroke="#8CD3F8" stroke-width="3"/>
<path d="M120.791 114H125L120.5 126.75" stroke="#8CD3F8" stroke-width="3" stroke-linecap="round" stroke-linejoin="round"/>
<path d="M135.5 117.5H124.5L135.5 126.75" stroke="#8CD3F8" stroke-width="3" stroke-linecap="round" stroke-linejoin="round"/>
<path fill-rule="evenodd" clip-rule="evenodd" d="M108.962 140.909L114.536 133.293L140.487 133.015C141.379 132.947 141.936 133.086 142.159 133.432C142.381 133.777 142.538 135.114 142.627 137.44V141.284L108.962 140.909Z" fill="#C2E8FF"/>
<path fill-rule="evenodd" clip-rule="evenodd" d="M100.845 141.127C99.9078 141.854 99.3026 142.447 99.0291 142.906C98.7555 143.365 98.5499 144.132 98.4122 145.207L98.5997 150.631C127.98 150.998 142.67 151.089 142.67 150.906C142.67 150.723 142.539 147.425 142.277 141.012L100.845 141.127Z" fill="white"/>
<path d="M134.5 157C137.538 157 140 154.538 140 151.5C140 148.462 137.538 146 134.5 146C131.462 146 129 148.462 129 151.5C129 154.538 131.462 157 134.5 157Z" fill="white"/>
<path d="M107.5 157C110.538 157 113 154.538 113 151.5C113 148.462 110.538 146 107.5 146C104.462 146 102 148.462 102 151.5C102 154.538 104.462 157 107.5 157Z" fill="white"/>
<path fill-rule="evenodd" clip-rule="evenodd" d="M97.5 150.5V146C97.5 144.217 99.3289 141.5 102.975 141.5H108.941L112.675 135.345C113.5 134.041 114.935 133.5 116.479 133.5H139.5C141.709 133.5 143.5 135.291 143.5 137.5V150.5H139.949C139.983 150.745 140 151.246 140 151.5C140 154.538 137.538 157 134.5 157C131.462 157 129 154.538 129 151.5C129 151.246 129.017 150.745 129.051 150.5H112.949C112.983 150.745 113 151.246 113 151.5C113 154.538 110.538 157 107.5 157C104.462 157 102 154.538 102 151.5C102 151.246 102.017 150.745 102.051 150.5H97.5Z" stroke="#8CD3F8" stroke-width="3" stroke-linecap="round" stroke-linejoin="round"/>
<path d="M134.5 157C137.538 157 140 154.538 140 151.5C140 148.462 137.538 146 134.5 146C131.462 146 129 148.462 129 151.5C129 154.538 131.462 157 134.5 157Z" stroke="#8CD3F8" stroke-width="3" stroke-linecap="round" stroke-linejoin="round"/>
<path d="M107.5 157C110.538 157 113 154.538 113 151.5C113 148.462 110.538 146 107.5 146C104.462 146 102 148.462 102 151.5C102 154.538 104.462 157 107.5 157Z" stroke="#8CD3F8" stroke-width="3" stroke-linecap="round" stroke-linejoin="round"/>
<path d="M96 150.5H102" stroke="#8CD3F8" stroke-width="3" stroke-linecap="round"/>
<path d="M147.5 138.5V146" stroke="#8CD3F8" stroke-width="3" stroke-linecap="round"/>
<path d="M125.5 134V140.5" stroke="#8CD3F8" stroke-width="3" stroke-linecap="round"/>
<path d="M109 141.5H113.374H142.25" stroke="#8CD3F8" stroke-width="3" stroke-linecap="round"/>
<path fill-rule="evenodd" clip-rule="evenodd" d="M154.507 123.976L153.592 128.374V141.768H186.466L184.995 144.473H201.394L201.1 131.907L198.2 125.903L191.315 122.522C183.107 122.312 175.473 122.207 168.412 122.207C161.351 122.207 156.716 122.797 154.507 123.976Z" fill="#C2E8FF"/>
<path d="M178.75 117.25H169.25C168.145 117.25 167.25 118.145 167.25 119.25V120.25C167.25 121.355 168.145 122.25 169.25 122.25H178.75C179.855 122.25 180.75 121.355 180.75 120.25V119.25C180.75 118.145 179.855 117.25 178.75 117.25Z" fill="#C2E8FF"/>
<path fill-rule="evenodd" clip-rule="evenodd" d="M153.317 142.162H186.58L185.093 144.476L201.348 144.988L199.574 149.1L195.379 150.605L158.537 150.925L153.317 150.605V142.162Z" fill="white"/>
<path d="M186 157C189.038 157 191.5 154.538 191.5 151.5C191.5 148.462 189.038 146 186 146C182.962 146 180.5 148.462 180.5 151.5C180.5 154.538 182.962 157 186 157Z" fill="white"/>
<path fill-rule="evenodd" clip-rule="evenodd" d="M153.764 128.411C155.461 126.161 157.183 125.029 158.928 125.016C160.674 125.003 170.905 125.003 189.621 125.016C194.545 125.331 198.227 127.879 200.666 132.659C203.106 137.44 202.58 135.75 199.088 127.59C197.243 125.804 196.289 124.887 196.226 124.839C196.163 124.792 194.366 124.168 190.834 122.968H182.146H158.771L155.431 124.051L153.764 125.91V128.411Z" fill="white"/>
<path fill-rule="evenodd" clip-rule="evenodd" d="M195.25 150.5C198.564 150.5 201.5 147.314 201.5 144V133.5C201.5 126.873 195.877 121.5 189.25 121.5H159.25C155.936 121.5 153.5 124.186 153.5 127.5V150.5H180.551C180.517 150.745 180.5 150.496 180.5 150.75C180.5 153.788 182.962 156.25 186 156.25C189.038 156.25 191.5 153.788 191.5 150.75C191.5 150.496 191.483 150.745 191.449 150.5H195.25Z" stroke="#8CD3F8" stroke-width="3" stroke-linecap="round" stroke-linejoin="round"/>
<path fill-rule="evenodd" clip-rule="evenodd" d="M169.5 116.5H179C180.105 116.5 181 117.395 181 118.5V121.5H167.5V118.5C167.5 117.395 168.395 116.5 169.5 116.5Z" stroke="#8CD3F8" stroke-width="3"/>
<path fill-rule="evenodd" clip-rule="evenodd" d="M161.5 129.5H171.5C172.052 129.5 172.5 129.948 172.5 130.5V149.5C172.5 150.052 172.052 150.5 171.5 150.5H161.5C160.948 150.5 160.5 150.052 160.5 149.5V130.5C160.5 129.948 160.948 129.5 161.5 129.5Z" stroke="#8CD3F8" stroke-width="3"/>
<path fill-rule="evenodd" clip-rule="evenodd" d="M179.5 129.5H192.5C193.052 129.5 193.5 129.948 193.5 130.5V134.5C193.5 135.052 193.052 135.5 192.5 135.5H179.5C178.948 135.5 178.5 135.052 178.5 134.5V130.5C178.5 129.948 178.948 129.5 179.5 129.5Z" stroke="#8CD3F8" stroke-width="3"/>
<path d="M153.5 141.5H186.5L184.497 144.5H201.25" stroke="#8CD3F8" stroke-width="3"/>
<path d="M193.502 150.5H141" stroke="#8CD3F8" stroke-width="3"/>
</g>
<defs>
<clipPath id="clip0_5337_229">
<rect width="300" height="200" fill="white"/>
</clipPath>
</defs>
</svg>
