<svg width="300" height="200" viewBox="0 0 300 200" fill="none" xmlns="http://www.w3.org/2000/svg">
<g clip-path="url(#clip0_5337_327)">
<path d="M253.5 118.5L230.5 100.5L213.5 114" stroke="#C2E8FF" stroke-width="3" stroke-linecap="round" stroke-linejoin="round"/>
<path d="M218.5 109L213.5 105L197.5 118.5" stroke="#C2E8FF" stroke-width="3" stroke-linecap="round" stroke-linejoin="round"/>
<path d="M266.5 118.5H188.5" stroke="#C2E8FF" stroke-width="3" stroke-linecap="round"/>
<path fill-rule="evenodd" clip-rule="evenodd" d="M252.054 116.554L248.896 113.003L249.14 111.524C249.273 110.715 249.816 110.222 250.352 110.423C250.697 110.553 250.97 110.95 251.07 111.465L252.054 116.554Z" fill="#C2E8FF"/>
<path fill-rule="evenodd" clip-rule="evenodd" d="M256.361 118.359L254.092 118.177L251.481 115.701L252.418 110.014C252.551 109.204 253.094 108.711 253.63 108.913C253.975 109.042 254.248 109.439 254.348 109.955L256.361 118.359Z" fill="#C2E8FF"/>
<path fill-rule="evenodd" clip-rule="evenodd" d="M196.461 111.759L194.898 119L199.094 115.415L198.422 111.788C198.322 111.245 197.8 110.887 197.257 110.987C196.86 111.061 196.547 111.365 196.461 111.759Z" fill="#C2E8FF"/>
<path fill-rule="evenodd" clip-rule="evenodd" d="M182.098 36.236C174.111 26.7168 159.882 25.5059 150.318 33.5313C140.753 41.5567 139.475 55.7794 147.463 65.2985C155.45 74.8177 169.679 76.0287 179.243 68.0033C188.807 59.9779 190.086 45.7552 182.098 36.236Z" stroke="#C2E8FF" stroke-width="3" stroke-linecap="round" stroke-linejoin="round" stroke-dasharray="67.5 0.5 0.5 9"/>
<path fill-rule="evenodd" clip-rule="evenodd" d="M156.289 36.25C148.398 40.8063 145.711 50.9279 150.289 58.8571C154.867 66.7863 164.976 69.5206 172.868 64.9642C180.759 60.4079 183.446 50.2863 178.868 42.3571C174.29 34.4279 164.181 31.6936 156.289 36.25Z" stroke="#C2E8FF" stroke-width="3" stroke-linecap="round" stroke-linejoin="round" stroke-dasharray="53.5 5"/>
<path d="M164.5 61.6185C170.575 61.6185 175.5 56.6671 175.5 50.5592C175.5 44.4514 170.575 39.5 164.5 39.5C158.425 39.5 153.5 44.4514 153.5 50.5592C153.5 56.6671 158.425 61.6185 164.5 61.6185Z" fill="#C2E8FF" stroke="#8CD3F8" stroke-width="3"/>
<path d="M147 118.5H153" stroke="#C2E8FF" stroke-width="3" stroke-linecap="round"/>
<path d="M25.5 118.5H140.5" stroke="#C2E8FF" stroke-width="3" stroke-linecap="round"/>
<path fill-rule="evenodd" clip-rule="evenodd" d="M41.4102 107.163L42.6963 113.215L36.7266 118.322L39.4606 107.134C39.5917 106.597 40.1329 106.269 40.6694 106.4C41.0425 106.491 41.3304 106.788 41.4102 107.163Z" fill="#C2E8FF"/>
<path fill-rule="evenodd" clip-rule="evenodd" d="M125.963 106.439L128.5 115.5L122.885 110.553L124.037 106.439C124.186 105.907 124.738 105.597 125.27 105.746C125.606 105.84 125.869 106.103 125.963 106.439Z" fill="#C2E8FF"/>
<path fill-rule="evenodd" clip-rule="evenodd" d="M44.9662 109.491L45.8008 112.621L44.8535 113.367H42L43.0338 109.491C43.1761 108.957 43.724 108.64 44.2577 108.782C44.6037 108.875 44.874 109.145 44.9662 109.491Z" fill="#C2E8FF"/>
<path d="M38 118.5L75.5 88L104.25 110.5" stroke="#C2E8FF" stroke-width="3" stroke-linecap="round" stroke-linejoin="round"/>
<path d="M95.5 103.472L104.5 96L131.5 118" stroke="#C2E8FF" stroke-width="3" stroke-linecap="round" stroke-linejoin="round"/>
<path d="M64.5273 97.5H71.8744L76.7714 102.192L80.1278 98.8356L83.3121 102.02L87.7075 97.6246" stroke="#C2E8FF" stroke-width="3" stroke-linecap="round" stroke-linejoin="round"/>
<path d="M84 62.5403H93.5C93.1395 59.8136 94.0408 57.5326 96.2039 55.6972C98.6877 53.6506 101.637 54.1094 103.22 54.8156C104.804 55.5218 105.98 56.4921 106.796 58.323C107.141 59.0939 107.376 59.7461 107.5 60.2796" stroke="#C2E8FF" stroke-width="3" stroke-linecap="round"/>
<path d="M103.5 64.0475C104.028 62.2119 105.111 61.0118 106.75 60.4471C109.209 59.6001 111.54 60.7281 112.471 61.8631C113.402 62.9981 113.698 63.9098 113.873 64.8613C113.99 65.4957 114.033 66.2291 114 67.0617H116.082C118.018 67.5784 118.994 68.73 119.008 70.5167C119.032 73.7064 116.695 74.5001 115.5 74.5001H76" stroke="#C2E8FF" stroke-width="3" stroke-linecap="round"/>
<path d="M71 68.5H103.5" stroke="#C2E8FF" stroke-width="3" stroke-linecap="round"/>
<path d="M62 68.5H66" stroke="#C2E8FF" stroke-width="3" stroke-linecap="round"/>
<path d="M191 83.5403H200.5C200.139 80.8136 201.041 78.5326 203.204 76.6972C205.688 74.6506 208.637 75.1094 210.22 75.8156C211.804 76.5218 212.98 77.4921 213.796 79.323C214.141 80.0939 214.376 80.7461 214.5 81.2796" stroke="#C2E8FF" stroke-width="3" stroke-linecap="round"/>
<path d="M210.5 85.0475C211.028 83.2119 212.111 82.0118 213.75 81.4471C216.209 80.6001 218.54 81.7281 219.471 82.8631C220.402 83.9981 220.698 84.9098 220.873 85.8613C220.99 86.4957 221.033 87.2291 221 88.0617H223.082C225.018 88.5784 225.994 89.73 226.008 91.5167C226.032 94.7064 223.695 95.5001 222.5 95.5001H183" stroke="#C2E8FF" stroke-width="3" stroke-linecap="round"/>
<path d="M178 89.5H210.5" stroke="#C2E8FF" stroke-width="3" stroke-linecap="round"/>
<path d="M169 89.5H173" stroke="#C2E8FF" stroke-width="3" stroke-linecap="round"/>
<path d="M203.249 140.361C206.871 141.115 209.119 137.5 209.119 137.5H209.123C209.123 137.5 210.838 140.473 214.36 140.473C217.735 140.473 219.587 137.5 219.587 137.5H219.593C219.593 137.5 221.304 140.473 224.826 140.473C228.202 140.473 230.053 137.5 230.053 137.5H230.059C230.059 137.5 232.956 141.174 236.5 140.421" stroke="#C2E8FF" stroke-width="3" stroke-linecap="round" stroke-linejoin="round"/>
<path d="M180.749 140.361C184.371 141.115 186.619 137.5 186.619 137.5H186.623C186.623 137.5 188.338 140.473 191.86 140.473C195.235 140.473 197.087 137.5 197.087 137.5H197.093C197.093 137.5 198.804 140.473 202.326 140.473C205.702 140.473 207.553 137.5 207.553 137.5H207.559C207.559 137.5 210.456 141.174 214 140.421" stroke="#C2E8FF" stroke-width="3" stroke-linecap="round" stroke-linejoin="round"/>
<path d="M149.249 140.361C152.871 141.115 155.119 137.5 155.119 137.5H155.123C155.123 137.5 156.838 140.473 160.36 140.473C163.735 140.473 165.587 137.5 165.587 137.5H165.593C165.593 137.5 167.304 140.473 170.826 140.473C174.202 140.473 176.053 137.5 176.053 137.5H176.059C176.059 137.5 178.956 141.174 182.5 140.421" stroke="#C2E8FF" stroke-width="3" stroke-linecap="round" stroke-linejoin="round"/>
<path d="M80.7491 140.361C84.3709 141.115 86.6192 137.5 86.6192 137.5H86.6235C86.6235 137.5 88.3382 140.473 91.8602 140.473C95.2348 140.473 97.0869 137.5 97.0869 137.5H97.0926C97.0926 137.5 98.8045 140.473 102.326 140.473C105.702 140.473 107.553 137.5 107.553 137.5H107.559C107.559 137.5 110.456 141.174 114 140.421" stroke="#C2E8FF" stroke-width="3" stroke-linecap="round" stroke-linejoin="round"/>
<path d="M49.2491 140.361C52.8709 141.115 55.1192 137.5 55.1192 137.5H55.1235C55.1235 137.5 56.8382 140.473 60.3602 140.473C63.7348 140.473 65.5869 137.5 65.5869 137.5H65.5926C65.5926 137.5 67.3045 140.473 70.8265 140.473C74.2025 140.473 76.0531 137.5 76.0531 137.5H76.0589C76.0589 137.5 78.9563 141.174 82.5 140.421" stroke="#C2E8FF" stroke-width="3" stroke-linecap="round" stroke-linejoin="round"/>
<path d="M92.7491 150.361C96.3709 151.115 98.6192 147.5 98.6192 147.5H98.6235C98.6235 147.5 100.338 150.473 103.86 150.473C107.235 150.473 109.087 147.5 109.087 147.5H109.093C109.093 147.5 110.804 150.473 114.326 150.473C117.702 150.473 119.553 147.5 119.553 147.5H119.559C119.559 147.5 122.456 151.174 126 150.421" stroke="#C2E8FF" stroke-width="3" stroke-linecap="round" stroke-linejoin="round"/>
<path d="M156.308 132.004C155.981 132.205 155.931 132.482 156.08 132.745C156.283 133.107 157.127 133.288 158.131 132.763C158.134 133.137 158.145 133.556 158.17 134.046C158.185 134.326 158.381 134.992 158.201 135.162C157.765 135.573 157.626 135.909 157.725 136.34C157.78 136.578 158.124 136.754 158.543 136.861C158.889 136.968 159.314 137.04 159.748 136.976H159.749C160.856 136.891 161.294 136.68 161.272 136.228C161.27 136.165 161.258 136.097 161.237 136.021C161.148 135.707 161.07 135.364 161.071 135.119C161.072 135.036 161.08 134.965 161.101 134.908C161.121 134.852 161.215 134.669 161.354 134.573C161.389 134.55 161.427 134.531 161.467 134.521C161.589 134.491 161.734 134.54 161.891 134.76C161.931 134.816 161.975 134.901 161.989 134.993C162.003 135.084 161.989 135.182 161.911 135.265C161.866 135.312 161.831 135.366 161.805 135.424C161.779 135.482 161.761 135.544 161.752 135.608C161.701 135.993 161.98 136.455 162.596 136.583C162.867 136.638 163.118 136.676 163.352 136.693C164.055 136.746 164.591 136.625 164.947 136.33C165.186 136.134 164.988 135.297 164.784 134.577C166.242 134.05 166.538 133.01 166.538 133.01C166.209 133.179 165.804 133.558 165.742 133.334C165.681 133.111 167.97 131.73 166.515 129.274C166.586 130.744 165.851 130.961 165.716 130.976C165.581 130.992 165.615 130.789 165.695 130.47C165.212 130.605 164.843 131.012 164.575 131.345C164.563 131.297 164.557 131.243 164.545 131.197C164.56 130.982 164.514 130.71 164.421 130.419C164.254 129.899 163.932 129.327 163.552 128.909C163.654 128.862 163.747 128.814 163.82 128.77C165.258 127.863 167.527 125.502 164.946 122.319C164.811 122.153 164.666 122.002 164.511 121.863C164.755 118.996 163.009 120.128 162.233 120.764C160.963 120.504 159.569 120.651 158.401 121.108C157.521 120.523 155.85 119.732 156.36 122.545C156.36 122.545 155.303 126.208 157.938 128.165C158.399 128.508 158.871 128.76 159.336 128.941C159.305 128.99 159.289 129.025 159.281 129.047C159.271 129.058 159.262 129.07 159.251 129.082C158.478 129.238 158.359 129.824 158.359 129.824C158.364 129.956 158.342 130.092 158.309 130.275C158.238 130.376 158.166 130.478 158.093 130.588C158.043 130.662 157.973 130.749 157.901 130.837C157.534 131.02 157.089 131.059 157.082 131.06C157.018 131.055 156.941 131.069 156.898 131.078C156.694 131.116 156.282 131.109 156.21 131.449C156.177 131.603 156.295 131.687 156.373 131.765C156.441 131.83 156.389 131.954 156.308 132.004Z" fill="#C2E8FF"/>
<path d="M172.582 105.199C172.146 105.669 172.947 106.465 172.947 106.465L172.955 106.454C172.817 107.101 172.743 107.913 172.683 108.591C172.59 109.652 172.042 111.115 171.855 111.592L171.838 111.566C171.838 111.566 168.022 114.287 167.213 115.698C166.548 116.857 166.936 117.524 167.51 118.391C167.981 119.101 167.329 118.955 167.015 119.1C166.57 119.305 166.27 121.321 168.046 121.716C168.943 121.916 169.785 121.491 170.432 120.888C170.352 121.169 170.267 121.459 170.178 121.757C169.477 124.092 169.011 127.947 168.175 130.962C167.685 132.731 166.674 133.637 166.674 134.708C166.674 136.137 168.288 136.849 170.625 136.581C171.956 136.429 172.461 135.832 172.683 134.173C172.93 132.343 175.578 131.873 176.913 131.818C179.063 131.729 181.864 132.996 181.976 134.333C182.064 135.406 181.926 136.542 184.034 136.903C186.538 137.331 187.929 136.266 187.929 135.297C187.929 134.72 187.231 132.903 186.285 130.71C184.766 127.179 182.611 122.671 181.697 120.779C180.982 119.302 180.492 117.569 180.092 116.013C180.925 115.452 181.883 114.595 182.773 113.213C183.15 112.623 183.789 110.618 183.937 108.795C184.308 107.034 184.017 105.143 182.149 105.012C181.013 104.93 180.923 106.115 181.229 107.664C181.233 107.672 181.233 107.68 181.233 107.689C181.284 109.216 181.135 110.177 181.081 110.339C180.727 110.943 179.972 111.432 179.37 111.769C179.174 111.799 178.981 111.809 178.801 111.81C178.314 110.544 178.022 108.006 177.617 106.578C177.803 106.361 178.245 105.767 177.89 105.393C177.549 105.034 177.136 105.275 176.925 105.445C176.051 104.984 174.19 105.144 173.616 105.298C173.44 105.14 172.961 104.792 172.582 105.199ZM171.753 114.766L171.739 114.879C171.677 115.374 171.59 115.935 171.471 116.57C171.379 116.352 171.261 116.111 171.115 115.843C170.957 115.55 171.319 115.156 171.753 114.766Z" fill="#C2E8FF"/>
<path d="M165.582 144.836L142.689 121.383" stroke="#8CD3F8" stroke-width="3" stroke-linecap="round" stroke-linejoin="round"/>
<path d="M200.611 131.182C201.864 136.508 201.407 140.384 199.239 142.812C197.071 145.239 194.764 146.469 192.319 146.5H141.157C136.659 145.514 133.729 143.377 132.367 140.091C131.005 136.804 130.584 133.259 131.105 129.453C134.666 133.125 138.389 135.141 142.273 135.5C148.03 135.5 185.18 135.5 191.137 135.5C195.108 135.5 198.266 134.061 200.611 131.182Z" fill="#C2E8FF"/>
<g filter="url(#filter0_i_5337_327)">
<path d="M200.611 131.182C201.864 136.508 201.407 140.384 199.239 142.812C197.071 145.239 194.764 146.469 192.319 146.5H141.157C136.659 145.514 133.729 143.377 132.367 140.091C131.005 136.804 130.584 133.259 131.105 129.453C134.666 133.125 138.389 135.141 142.273 135.5C148.03 135.5 185.18 135.5 191.137 135.5C195.108 135.5 198.266 134.061 200.611 131.182Z" fill="#C2E8FF"/>
</g>
<path d="M200.611 131.182C201.864 136.508 201.407 140.384 199.239 142.812C197.071 145.239 194.764 146.469 192.319 146.5H141.157C136.659 145.514 133.729 143.377 132.367 140.091C131.005 136.804 130.584 133.259 131.105 129.453C134.666 133.125 138.389 135.141 142.273 135.5C148.03 135.5 185.18 135.5 191.137 135.5C195.108 135.5 198.266 134.061 200.611 131.182Z" stroke="#8CD3F8" stroke-width="3" stroke-linecap="round" stroke-linejoin="round"/>
<path d="M144.5 124.293V132.631C144.5 145.284 147.402 153.241 151.51 156.285" stroke="#8CD3F8" stroke-width="3" stroke-linecap="round" stroke-linejoin="round"/>
</g>
<defs>
<filter id="filter0_i_5337_327" x="130.889" y="129.453" width="70.4108" height="17.0469" filterUnits="userSpaceOnUse" color-interpolation-filters="sRGB">
<feFlood flood-opacity="0" result="BackgroundImageFix"/>
<feBlend mode="normal" in="SourceGraphic" in2="BackgroundImageFix" result="shape"/>
<feColorMatrix in="SourceAlpha" type="matrix" values="0 0 0 0 0 0 0 0 0 0 0 0 0 0 0 0 0 0 127 0" result="hardAlpha"/>
<feOffset dy="4"/>
<feComposite in2="hardAlpha" operator="arithmetic" k2="-1" k3="1"/>
<feColorMatrix type="matrix" values="0 0 0 0 1 0 0 0 0 1 0 0 0 0 1 0 0 0 1 0"/>
<feBlend mode="normal" in2="shape" result="effect1_innerShadow_5337_327"/>
</filter>
<clipPath id="clip0_5337_327">
<rect width="300" height="200" fill="white"/>
</clipPath>
</defs>
</svg>
