<svg width="300" height="200" viewBox="0 0 300 200" fill="none" xmlns="http://www.w3.org/2000/svg">
<g clip-path="url(#clip0_5337_498)">
<path fill-rule="evenodd" clip-rule="evenodd" d="M70.171 115.793L76.0093 135.944C76.3167 137.005 75.7058 138.114 74.6449 138.421C74.464 138.474 74.2767 138.5 74.0883 138.5H62.4117C61.3072 138.5 60.4117 137.605 60.4117 136.5C60.4117 136.312 60.4383 136.125 60.4907 135.944L66.329 115.793C66.6364 114.732 67.7457 114.121 68.8066 114.428C69.4653 114.619 69.9802 115.134 70.171 115.793Z" fill="white"/>
<path fill-rule="evenodd" clip-rule="evenodd" d="M68.5 111.662L77.5 137.75H59.5L68.5 111.662Z" stroke="#C2E8FF" stroke-width="3" stroke-linecap="round" stroke-linejoin="round"/>
<path fill-rule="evenodd" clip-rule="evenodd" d="M68.5 113.848C68.5 133.023 68.5 142.824 68.5 143.25C68.5 142.824 68.5 133.023 68.5 113.848Z" stroke="#C2E8FF" stroke-width="3" stroke-linecap="round"/>
<path fill-rule="evenodd" clip-rule="evenodd" d="M64.25 125.162C66.9167 127.726 68.25 129.059 68.25 129.162C68.25 129.059 66.9167 127.726 64.25 125.162Z" stroke="#C2E8FF" stroke-width="3" stroke-linecap="round" stroke-linejoin="round"/>
<path fill-rule="evenodd" clip-rule="evenodd" d="M85.3239 97L97.5551 137.927C97.8714 138.986 97.2698 140.1 96.2115 140.416C96.0257 140.472 95.8328 140.5 95.6388 140.5H75.009C73.9045 140.5 73.009 139.605 73.009 138.5C73.009 138.306 73.0372 138.113 73.0928 137.927L85.3239 97Z" fill="white"/>
<path fill-rule="evenodd" clip-rule="evenodd" d="M85.5 97L99.25 139.75H72.25L85.5 97Z" stroke="#C2E8FF" stroke-width="3" stroke-linecap="round" stroke-linejoin="round"/>
<path fill-rule="evenodd" clip-rule="evenodd" d="M85.5 98.7932C85.5 127.68 85.5 142.499 85.5 143.25C85.5 142.499 85.5 127.68 85.5 98.7932Z" stroke="#C2E8FF" stroke-width="3" stroke-linecap="round"/>
<path fill-rule="evenodd" clip-rule="evenodd" d="M79.824 118C83.4906 121.539 85.324 123.373 85.324 123.5C85.324 123.373 83.4906 121.539 79.824 118Z" stroke="#C2E8FF" stroke-width="3" stroke-linecap="round" stroke-linejoin="round"/>
<path fill-rule="evenodd" clip-rule="evenodd" d="M85.824 131C90.4906 125.539 92.824 122.873 92.824 123C92.824 122.873 90.4906 125.539 85.824 131Z" stroke="#C2E8FF" stroke-width="3" stroke-linecap="round" stroke-linejoin="round"/>
<path d="M230.5 132L206.5 113L190.5 126" stroke="#C2E8FF" stroke-width="3" stroke-linecap="round" stroke-linejoin="round"/>
<path d="M195 121.5L190.5 117.5L174 131" stroke="#C2E8FF" stroke-width="3" stroke-linecap="round" stroke-linejoin="round"/>
<path fill-rule="evenodd" clip-rule="evenodd" d="M112.981 143.482C111.613 140.257 108.472 138.002 104.817 138.002C103.81 138.002 102.842 138.173 101.939 138.488C100.226 135.835 97.2837 134.085 93.9419 134.085C90.7457 134.085 87.9151 135.686 86.1755 138.147C85.4795 137.734 84.6712 137.498 83.8089 137.498C83.0542 137.498 82.3408 137.679 81.7079 138.001C79.9988 133.544 75.755 130.388 70.7903 130.388C66.2317 130.388 62.2808 133.048 60.3419 136.934C59.1956 136.384 57.9158 136.076 56.5657 136.076C52.2187 136.076 48.6 139.266 47.8239 143.482H112.981Z" fill="#C2E8FF"/>
<path d="M36 143.5H261.5" stroke="#C2E8FF" stroke-width="3" stroke-linecap="round"/>
<path fill-rule="evenodd" clip-rule="evenodd" d="M254.861 144.302H172.197C172.164 143.936 172.147 143.565 172.147 143.189C172.147 136.473 177.54 131.028 184.193 131.028C186.021 131.028 187.754 131.439 189.307 132.175C191.932 126.983 197.282 123.427 203.456 123.427C210.179 123.427 215.925 127.644 218.24 133.6C219.097 133.17 220.063 132.928 221.085 132.928C222.253 132.928 223.347 133.244 224.29 133.795C226.645 130.507 230.478 128.368 234.807 128.368C241.168 128.368 246.46 132.99 247.564 139.088C247.89 139.036 248.225 139.009 248.566 139.009C251.705 139.009 254.317 141.291 254.861 144.302Z" fill="#C2E8FF"/>
<path fill-rule="evenodd" clip-rule="evenodd" d="M166.25 125.75H184.75V118.75H129.25V125.75H152.25V136.25H166.25V125.75Z" fill="white"/>
<path fill-rule="evenodd" clip-rule="evenodd" d="M122.494 101.609C123.781 101.609 140.806 101.609 173.571 101.609L181.692 107.057L128.162 108.244C123.097 103.821 121.208 101.609 122.494 101.609Z" fill="white"/>
<path fill-rule="evenodd" clip-rule="evenodd" d="M121.835 102.511L116.278 101.687H114.302L108.386 105.452C107.045 107.837 107.045 109.114 108.386 109.284C109.726 109.454 113.564 108.663 119.899 106.912L126.996 105.452L126.035 104.342L121.835 102.511Z" fill="white"/>
<path d="M129.5 118.5H105.5V125.5H129.5V118.5Z" fill="white"/>
<path fill-rule="evenodd" clip-rule="evenodd" d="M152.155 125.728V136.336H165.963L166.412 126.066L184.75 125.728V152.75H129.75V125.847L152.155 125.728Z" fill="#C2E8FF"/>
<path fill-rule="evenodd" clip-rule="evenodd" d="M171.835 106C166.94 106 151.449 106 125.363 106L121.409 110.253L120.353 118.136H184.391V113.739C180.916 108.58 176.731 106 171.835 106Z" fill="#C2E8FF"/>
<path fill-rule="evenodd" clip-rule="evenodd" d="M124.413 106C122.732 106 120.209 106 116.846 106C113.581 106 110.269 107.918 106.909 111.753L105.853 119.136H129.705V111.239L129.589 110.164C127.967 107.388 126.242 106 124.413 106Z" fill="#C2E8FF"/>
<path d="M129.75 125.75H105.75V152.75H129.75V125.75Z" fill="#C2E8FF"/>
<path fill-rule="evenodd" clip-rule="evenodd" d="M129.5 118.5H184.5V152.5H129.5V118.5Z" stroke="#8CD3F8" stroke-width="3" stroke-linecap="round" stroke-linejoin="round"/>
<path fill-rule="evenodd" clip-rule="evenodd" d="M184.5 125.5V118.5H129.5V125.5H152.5V136.5H166.5V125.5H184.5Z" stroke="#8CD3F8" stroke-width="3" stroke-linecap="round" stroke-linejoin="round"/>
<path fill-rule="evenodd" clip-rule="evenodd" d="M117.5 101.5H172.5C179.127 101.5 184.5 106.873 184.5 113.5V118.5H105.5V113.5C105.5 106.873 110.873 101.5 117.5 101.5Z" stroke="#8CD3F8" stroke-width="3" stroke-linecap="round" stroke-linejoin="round"/>
<path fill-rule="evenodd" clip-rule="evenodd" d="M117.5 101.5C124.127 101.5 129.5 106.873 129.5 113.5V118.5H105.5V113.5C105.5 106.873 110.873 101.5 117.5 101.5Z" stroke="#8CD3F8" stroke-width="3" stroke-linecap="round" stroke-linejoin="round"/>
<path d="M129.5 125.5H105.5V152.5H129.5V125.5Z" stroke="#8CD3F8" stroke-width="3" stroke-linecap="round" stroke-linejoin="round"/>
<path d="M129.5 118.5H105.5V125.5H129.5V118.5Z" stroke="#8CD3F8" stroke-width="3" stroke-linecap="round" stroke-linejoin="round"/>
<path fill-rule="evenodd" clip-rule="evenodd" d="M162 127.5C162 128.883 160.883 130 159.5 130C158.117 130 157 128.883 157 127.5C157 126.117 158.117 125 159.5 125C160.883 125 162 126.117 162 127.5Z" fill="#8CD3F8"/>
<path d="M159.5 129V131.5" stroke="#8CD3F8" stroke-width="3" stroke-linecap="round"/>
<path d="M134.5 132C135.328 132 136 131.328 136 130.5C136 129.672 135.328 129 134.5 129C133.672 129 133 129.672 133 130.5C133 131.328 133.672 132 134.5 132Z" fill="#8CD3F8"/>
<path d="M134.5 149.5C135.328 149.5 136 148.828 136 148C136 147.172 135.328 146.5 134.5 146.5C133.672 146.5 133 147.172 133 148C133 148.828 133.672 149.5 134.5 149.5Z" fill="#8CD3F8"/>
<path d="M180 132C180.828 132 181.5 131.328 181.5 130.5C181.5 129.672 180.828 129 180 129C179.172 129 178.5 129.672 178.5 130.5C178.5 131.328 179.172 132 180 132Z" fill="#8CD3F8"/>
<path d="M180 149.5C180.828 149.5 181.5 148.828 181.5 148C181.5 147.172 180.828 146.5 180 146.5C179.172 146.5 178.5 147.172 178.5 148C178.5 148.828 179.172 149.5 180 149.5Z" fill="#8CD3F8"/>
<path d="M125 132C125.828 132 126.5 131.328 126.5 130.5C126.5 129.672 125.828 129 125 129C124.172 129 123.5 129.672 123.5 130.5C123.5 131.328 124.172 132 125 132Z" fill="#8CD3F8"/>
<path d="M125 149.5C125.828 149.5 126.5 148.828 126.5 148C126.5 147.172 125.828 146.5 125 146.5C124.172 146.5 123.5 147.172 123.5 148C123.5 148.828 124.172 149.5 125 149.5Z" fill="#8CD3F8"/>
<path d="M110.5 132C111.328 132 112 131.328 112 130.5C112 129.672 111.328 129 110.5 129C109.672 129 109 129.672 109 130.5C109 131.328 109.672 132 110.5 132Z" fill="#8CD3F8"/>
<path d="M110.5 149.5C111.328 149.5 112 148.828 112 148C112 147.172 111.328 146.5 110.5 146.5C109.672 146.5 109 147.172 109 148C109 148.828 109.672 149.5 110.5 149.5Z" fill="#8CD3F8"/>
<path fill-rule="evenodd" clip-rule="evenodd" d="M197.929 143.812L201.5 152.759H192.5L196.071 143.812C196.276 143.299 196.858 143.049 197.371 143.254C197.625 143.356 197.827 143.557 197.929 143.812Z" fill="#8CD3F8"/>
<path fill-rule="evenodd" clip-rule="evenodd" d="M203.179 147.57L205.25 152.759H199.25L201.321 147.57C201.526 147.057 202.108 146.807 202.621 147.012C202.875 147.114 203.077 147.315 203.179 147.57Z" fill="#8CD3F8"/>
<path fill-rule="evenodd" clip-rule="evenodd" d="M97.8212 143.812L94.25 152.759H103.25L99.6788 143.812C99.474 143.299 98.8922 143.049 98.3793 143.254C98.1246 143.356 97.9229 143.557 97.8212 143.812Z" fill="#8CD3F8"/>
<path fill-rule="evenodd" clip-rule="evenodd" d="M89.5712 147.57L87.5 152.759H93.5L91.4288 147.57C91.224 147.057 90.6422 146.807 90.1293 147.012C89.8746 147.114 89.6729 147.315 89.5712 147.57Z" fill="#8CD3F8"/>
<path d="M232.5 152.5H238.5" stroke="#8CD3F8" stroke-width="3" stroke-linecap="round" stroke-linejoin="round"/>
<path d="M52.5 152.5H227.5" stroke="#8CD3F8" stroke-width="3" stroke-linecap="round" stroke-linejoin="round"/>
<path d="M97 56.5402H106.5C106.139 53.8135 107.041 51.5325 109.204 49.6971C111.688 47.6505 114.637 48.1093 116.22 48.8155C117.804 49.5217 118.98 50.492 119.796 52.3229C120.141 53.0938 120.376 53.746 120.5 54.2795" stroke="#C2E8FF" stroke-width="3" stroke-linecap="round"/>
<path d="M116.5 58.0473C117.028 56.2118 118.111 55.0116 119.75 54.447C122.209 53.6 124.54 54.728 125.471 55.863C126.402 56.9979 126.698 57.9097 126.873 58.8612C126.99 59.4956 127.033 60.229 127 61.0615H129.082C131.018 61.5783 131.994 62.7299 132.008 64.5165C132.032 67.7063 129.695 68.4999 128.5 68.4999H89" stroke="#C2E8FF" stroke-width="3" stroke-linecap="round"/>
<path d="M84 62.5H116.5" stroke="#C2E8FF" stroke-width="3" stroke-linecap="round"/>
<path d="M75 62.5H79" stroke="#C2E8FF" stroke-width="3" stroke-linecap="round"/>
<path d="M158 75.5402H167.5C167.139 72.8135 168.041 70.5325 170.204 68.6971C172.688 66.6505 175.637 67.1093 177.22 67.8155C178.804 68.5217 179.98 69.492 180.796 71.3229C181.141 72.0938 181.376 72.746 181.5 73.2795" stroke="#C2E8FF" stroke-width="3" stroke-linecap="round"/>
<path d="M177.5 77.0473C178.028 75.2118 179.111 74.0116 180.75 73.447C183.209 72.6 185.54 73.728 186.471 74.863C187.402 75.9979 187.698 76.9097 187.873 77.8612C187.99 78.4956 188.033 79.229 188 80.0615H190.082C192.018 80.5783 192.994 81.7299 193.008 83.5165C193.032 86.7063 190.695 87.4999 189.5 87.4999H150" stroke="#C2E8FF" stroke-width="3" stroke-linecap="round"/>
<path d="M145 81.5H177.5" stroke="#C2E8FF" stroke-width="3" stroke-linecap="round"/>
<path d="M136 81.5H140" stroke="#C2E8FF" stroke-width="3" stroke-linecap="round"/>
<path d="M218.255 84.8381C218.255 84.8381 223.15 85.6882 221.884 90.6441" stroke="#C2E8FF" stroke-width="3" stroke-linecap="round"/>
<path d="M228.883 89.4253C228.883 89.4253 225.199 86.0915 222.074 90.1406" stroke="#C2E8FF" stroke-width="3" stroke-linecap="round"/>
<path d="M205.604 103.298C205.604 103.298 209.856 100.728 212.152 105.299" stroke="#C2E8FF" stroke-width="3" stroke-linecap="round"/>
<path d="M217.008 100.242C217.008 100.242 212.041 100.143 212.339 105.249" stroke="#C2E8FF" stroke-width="3" stroke-linecap="round"/>
</g>
<defs>
<clipPath id="clip0_5337_498">
<rect width="300" height="200" fill="white"/>
</clipPath>
</defs>
</svg>
