<svg width="300" height="200" viewBox="0 0 300 200" fill="none" xmlns="http://www.w3.org/2000/svg">
<g clip-path="url(#clip0_5337_578)">
<path d="M117 110.54H126.5C126.139 107.814 127.041 105.532 129.204 103.697C131.688 101.65 134.637 102.109 136.22 102.816C137.804 103.522 138.98 104.492 139.796 106.323C140.141 107.094 140.376 107.746 140.5 108.28" stroke="#C2E8FF" stroke-width="3" stroke-linecap="round"/>
<path d="M136.5 112.047C137.028 110.212 138.111 109.012 139.75 108.447C142.209 107.6 144.54 108.728 145.471 109.863C146.402 110.998 146.698 111.91 146.873 112.861C146.99 113.496 147.033 114.229 147 115.062H149.082C151.018 115.578 151.994 116.73 152.008 118.517C152.032 121.706 149.695 122.5 148.5 122.5H109" stroke="#C2E8FF" stroke-width="3" stroke-linecap="round"/>
<path d="M104 116.5H136.5" stroke="#C2E8FF" stroke-width="3" stroke-linecap="round"/>
<path d="M95 116.5H99" stroke="#C2E8FF" stroke-width="3" stroke-linecap="round"/>
<path d="M172 88.5402H181.5C181.139 85.8135 182.041 83.5325 184.204 81.6971C186.688 79.6505 189.637 80.1093 191.22 80.8155C192.804 81.5217 193.98 82.492 194.796 84.3229C195.141 85.0938 195.376 85.746 195.5 86.2795" stroke="#C2E8FF" stroke-width="3" stroke-linecap="round"/>
<path d="M191.5 90.0473C192.028 88.2118 193.111 87.0116 194.75 86.447C197.209 85.6 199.54 86.728 200.471 87.863C201.402 88.9979 201.698 89.9097 201.873 90.8612C201.99 91.4956 202.033 92.229 202 93.0615H204.082C206.018 93.5783 206.994 94.7299 207.008 96.5165C207.032 99.7063 204.695 100.5 203.5 100.5H164" stroke="#C2E8FF" stroke-width="3" stroke-linecap="round"/>
<path d="M159 94.5H191.5" stroke="#C2E8FF" stroke-width="3" stroke-linecap="round"/>
<path d="M150 94.5H154" stroke="#C2E8FF" stroke-width="3" stroke-linecap="round"/>
<path d="M39.5 155.5H264.5" stroke="#C2E8FF" stroke-width="3" stroke-linecap="round"/>
<path d="M55.5 155.5L93.5 124.5L122.25 147.062" stroke="#C2E8FF" stroke-width="3" stroke-linecap="round" stroke-linejoin="round"/>
<path d="M113.5 139.972L122.5 132.5L150.5 155.5" stroke="#C2E8FF" stroke-width="3" stroke-linecap="round" stroke-linejoin="round"/>
<path fill-rule="evenodd" clip-rule="evenodd" d="M60.3943 143.089L61.6963 149.215L55.7266 153.822L58.4466 143.052C58.5818 142.516 59.1255 142.192 59.661 142.327C60.0307 142.42 60.3151 142.716 60.3943 143.089Z" fill="#C2E8FF"/>
<path fill-rule="evenodd" clip-rule="evenodd" d="M139.963 139.939L142.5 149L136.885 144.053L138.037 139.939C138.186 139.407 138.738 139.097 139.27 139.246C139.606 139.34 139.869 139.603 139.963 139.939Z" fill="#C2E8FF"/>
<path fill-rule="evenodd" clip-rule="evenodd" d="M63.9662 144.991L64.7136 147.793L62.9126 148.867H61L62.0338 144.991C62.1761 144.457 62.724 144.14 63.2577 144.282C63.6037 144.375 63.874 144.645 63.9662 144.991Z" fill="#C2E8FF"/>
<path d="M249.75 154.5L206.5 111L175.25 145" stroke="#C2E8FF" stroke-width="3" stroke-linecap="round" stroke-linejoin="round"/>
<path fill-rule="evenodd" clip-rule="evenodd" d="M245.931 142.59L248.5 152.5L242.885 146.553L244 142.572C244.149 142.04 244.701 141.729 245.233 141.878C245.575 141.974 245.841 142.246 245.931 142.59Z" fill="#C2E8FF"/>
<path d="M182.25 134L170.5 123.5L144.25 150" stroke="#C2E8FF" stroke-width="3" stroke-linecap="round" stroke-linejoin="round"/>
<path fill-rule="evenodd" clip-rule="evenodd" d="M215.421 135.792L221.259 155.943C221.567 157.004 220.956 158.114 219.895 158.421C219.714 158.473 219.527 158.5 219.338 158.5H207.662C206.557 158.5 205.662 157.605 205.662 156.5C205.662 156.312 205.688 156.124 205.741 155.943L211.579 135.792C211.886 134.731 212.996 134.121 214.057 134.428C214.715 134.619 215.23 135.134 215.421 135.792Z" fill="#C2E8FF"/>
<path fill-rule="evenodd" clip-rule="evenodd" d="M213.5 131.662L222 158.5H205L213.5 131.662Z" stroke="#8CD3F8" stroke-width="3" stroke-linecap="round" stroke-linejoin="round"/>
<path fill-rule="evenodd" clip-rule="evenodd" d="M213.5 134.662C213.5 155.127 213.5 165.573 213.5 166C213.5 165.573 213.5 155.127 213.5 134.662Z" stroke="#8CD3F8" stroke-width="3" stroke-linecap="round"/>
<path fill-rule="evenodd" clip-rule="evenodd" d="M217.5 146.162C214.833 149.392 213.5 151.059 213.5 151.162C213.5 151.059 214.833 149.392 217.5 146.162Z" stroke="#8CD3F8" stroke-width="3" stroke-linecap="round" stroke-linejoin="round"/>
<path fill-rule="evenodd" clip-rule="evenodd" d="M194.324 114L206.576 155.939C206.886 156.999 206.277 158.11 205.217 158.42C205.035 158.473 204.846 158.5 204.656 158.5H183.992C182.887 158.5 181.992 157.605 181.992 156.5C181.992 156.31 182.019 156.121 182.072 155.939L194.324 114Z" fill="#C2E8FF"/>
<path fill-rule="evenodd" clip-rule="evenodd" d="M194.5 115L207.5 158.5H181.5L194.5 115Z" stroke="#8CD3F8" stroke-width="3" stroke-linecap="round" stroke-linejoin="round"/>
<path fill-rule="evenodd" clip-rule="evenodd" d="M194.5 118C194.5 147.249 194.5 162.249 194.5 163C194.5 162.249 194.5 147.249 194.5 118Z" stroke="#8CD3F8" stroke-width="3" stroke-linecap="round"/>
<path fill-rule="evenodd" clip-rule="evenodd" d="M189.824 134C192.824 136.873 194.324 138.373 194.324 138.5C194.324 138.373 192.824 136.873 189.824 134Z" stroke="#8CD3F8" stroke-width="3" stroke-linecap="round" stroke-linejoin="round"/>
<path fill-rule="evenodd" clip-rule="evenodd" d="M194.824 149C199.491 143.539 201.824 140.873 201.824 141C201.824 140.873 199.491 143.539 194.824 149Z" stroke="#8CD3F8" stroke-width="3" stroke-linecap="round" stroke-linejoin="round"/>
<path fill-rule="evenodd" clip-rule="evenodd" d="M83.171 135.792L89.0093 155.943C89.3167 157.004 88.7058 158.114 87.6449 158.421C87.464 158.473 87.2767 158.5 87.0883 158.5H75.4117C74.3072 158.5 73.4117 157.605 73.4117 156.5C73.4117 156.312 73.4383 156.124 73.4907 155.943L79.329 135.792C79.6364 134.731 80.7457 134.121 81.8066 134.428C82.4653 134.619 82.9802 135.134 83.171 135.792Z" fill="#C2E8FF"/>
<path fill-rule="evenodd" clip-rule="evenodd" d="M81.5 131.662L90.5 158.5H72.5L81.5 131.662Z" stroke="#8CD3F8" stroke-width="3" stroke-linecap="round" stroke-linejoin="round"/>
<path fill-rule="evenodd" clip-rule="evenodd" d="M81.5 134.25C81.5 153.157 81.5 162.824 81.5 163.25C81.5 162.824 81.5 153.157 81.5 134.25Z" stroke="#8CD3F8" stroke-width="3"/>
<path fill-rule="evenodd" clip-rule="evenodd" d="M86.25 148.662L81.9614 154.227L86.25 148.662Z" stroke="#8CD3F8" stroke-width="3" stroke-linecap="round" stroke-linejoin="round"/>
<path d="M59.5 164.5H237.5" stroke="#8CD3F8" stroke-width="3" stroke-linecap="round"/>
<path d="M243 164.5H248" stroke="#8CD3F8" stroke-width="3" stroke-linecap="round"/>
<path d="M108.5 95C126.725 95 141.5 80.2254 141.5 62C141.5 43.7746 126.725 29 108.5 29C90.2746 29 75.5 43.7746 75.5 62C75.5 80.2254 90.2746 95 108.5 95Z" fill="#C2E8FF"/>
<path d="M108.75 95C119.381 95 128 80.2254 128 62C128 43.7746 119.381 29 108.75 29C98.1185 29 89.5 43.7746 89.5 62C89.5 80.2254 98.1185 95 108.75 95Z" fill="#C2E8FF"/>
<path d="M116.25 105.75H100.25V116.75H116.25V105.75Z" fill="#C2E8FF"/>
<path fill-rule="evenodd" clip-rule="evenodd" d="M77.6384 53.8894C79.8639 48.0343 83.403 43.2571 88.2559 39.5579C92.5601 36.3987 95.3533 34.5466 101.545 33.438C103.566 33.0763 106.356 32.005 109 32C111.517 31.9952 113.868 33.0318 116.621 33.6581C119.839 34.3904 123.107 35.6567 126.169 37.697C134.6 43.3154 136.478 47.7473 139.481 53.8894C141.483 57.9841 141.322 56.6554 138.998 49.9031L135.078 43.189L127.175 35.9197L118 30.4431H106.61L98 31L88.8345 36.9065L80.7212 45.0354L77.6384 51.5164V53.8894Z" fill="white"/>
<path fill-rule="evenodd" clip-rule="evenodd" d="M92.7474 47.0247C92.7474 47.0247 96.1688 38.5247 101.39 34.9654C104.255 33.0671 107.1 32.2573 109.925 32.5359C112.142 32.7492 114.474 33.7794 116.921 35.6265C120.592 38.3971 123.567 43.8986 125.216 47.9137C126.315 50.5905 125.634 48.2783 123.173 40.977C120.465 37.4522 119.02 35.6201 118.838 35.4806C118.656 35.3412 117.026 33.9124 113.948 31.1945C111.89 30.4446 110.319 30.0594 109.236 30.039C108.153 30.0186 106.527 30.3434 104.357 31.0135L100.409 33.891L96.2303 38.1518C94.1865 41.5515 93.0997 43.3204 92.9698 43.4583C92.7751 43.6652 92.7474 47.0247 92.7474 47.0247Z" fill="white"/>
<path d="M108.5 95C126.725 95 141.5 80.2254 141.5 62C141.5 43.7746 126.725 29 108.5 29C90.2746 29 75.5 43.7746 75.5 62C75.5 80.2254 90.2746 95 108.5 95Z" stroke="#8CD3F8" stroke-width="3" stroke-linecap="round" stroke-linejoin="round"/>
<path d="M108.75 95C119.381 95 128 80.2254 128 62C128 43.7746 119.381 29 108.75 29C98.1185 29 89.5 43.7746 89.5 62C89.5 80.2254 98.1185 95 108.75 95Z" stroke="#8CD3F8" stroke-width="3" stroke-linecap="round" stroke-linejoin="round"/>
<path d="M117.5 105.5H99.5V116.5H117.5V105.5Z" stroke="#8CD3F8" stroke-width="3" stroke-linecap="round" stroke-linejoin="round"/>
<path d="M116.5 105.5L127.511 89.4651" stroke="#8CD3F8" stroke-width="3" stroke-linecap="round" stroke-linejoin="round"/>
<path d="M111.5 105.5L115 94.5" stroke="#8CD3F8" stroke-width="3" stroke-linecap="round" stroke-linejoin="round"/>
<path d="M105.5 105.5L102 94.5" stroke="#8CD3F8" stroke-width="3" stroke-linecap="round" stroke-linejoin="round"/>
<path d="M100.5 105.5L88.5842 88.575" stroke="#8CD3F8" stroke-width="3" stroke-linecap="round" stroke-linejoin="round"/>
<path d="M230.5 90C239.889 90 247.5 82.3888 247.5 73C247.5 63.6112 239.889 56 230.5 56C221.111 56 213.5 63.6112 213.5 73C213.5 82.3888 221.111 90 230.5 90Z" stroke="#C2E8FF" stroke-width="3" stroke-linecap="round" stroke-linejoin="round"/>
<path d="M230.125 90C235.441 90 239.75 82.6127 239.75 73.5C239.75 64.3873 235.441 57 230.125 57C224.809 57 220.5 64.3873 220.5 73.5C220.5 82.6127 224.809 90 230.125 90Z" stroke="#C2E8FF" stroke-width="3" stroke-linecap="round" stroke-linejoin="round"/>
<path d="M235.5 95.5H225.5V101.5H235.5V95.5Z" stroke="#C2E8FF" stroke-width="3" stroke-linecap="round" stroke-linejoin="round"/>
<path d="M235 95.25L239.521 87.5222" stroke="#C2E8FF" stroke-width="3" stroke-linecap="round" stroke-linejoin="round"/>
<path d="M226 95.25L221.506 87.5234" stroke="#C2E8FF" stroke-width="3" stroke-linecap="round" stroke-linejoin="round"/>
<path d="M230.5 94.9922V89.9678" stroke="#C2E8FF" stroke-width="3" stroke-linecap="round" stroke-linejoin="round"/>
<path d="M59.2552 94.8379C59.2552 94.8379 64.15 95.688 62.8837 100.644" stroke="#C2E8FF" stroke-width="3" stroke-linecap="round"/>
<path d="M69.8828 99.425C69.8828 99.425 66.1994 96.0912 63.0737 100.14" stroke="#C2E8FF" stroke-width="3" stroke-linecap="round"/>
<path d="M46.6042 113.298C46.6042 113.298 50.856 110.728 53.1516 115.299" stroke="#C2E8FF" stroke-width="3" stroke-linecap="round"/>
<path d="M58.0082 110.242C58.0082 110.242 53.0411 110.143 53.3386 115.249" stroke="#C2E8FF" stroke-width="3" stroke-linecap="round"/>
</g>
<defs>
<clipPath id="clip0_5337_578">
<rect width="300" height="200" fill="white"/>
</clipPath>
</defs>
</svg>
