<svg width="300" height="200" viewBox="0 0 300 200" fill="none" xmlns="http://www.w3.org/2000/svg">
<g clip-path="url(#clip0_1340_2985)">
<path d="M250 138L227.75 120L210.25 133.5" stroke="#C2E8FF" stroke-width="3" stroke-linecap="round" stroke-linejoin="round"/>
<path d="M215.5 129L210.25 124.5L194 138" stroke="#C2E8FF" stroke-width="3" stroke-linecap="round" stroke-linejoin="round"/>
<path d="M42.5 138.5H267.5" stroke="#C2E8FF" stroke-width="3" stroke-linecap="round"/>
<path fill-rule="evenodd" clip-rule="evenodd" d="M246.043 126.392L249 136.373L242.748 131.922L244.114 126.435C244.247 125.899 244.79 125.573 245.325 125.706C245.669 125.792 245.942 126.053 246.043 126.392Z" fill="#C2E8FF"/>
<path fill-rule="evenodd" clip-rule="evenodd" d="M198.422 127.439L195.885 136.5L201.5 131.553L200.348 127.439C200.199 126.907 199.647 126.597 199.115 126.746C198.779 126.84 198.516 127.103 198.422 127.439Z" fill="#C2E8FF"/>
<path d="M64 94.5402H73.5C73.1395 91.8135 74.0408 89.5325 76.2039 87.6971C78.6877 85.6505 81.6367 86.1093 83.2205 86.8155C84.8042 87.5217 85.9803 88.492 86.7957 90.3229C87.1411 91.0938 87.3759 91.746 87.5 92.2795" stroke="#C2E8FF" stroke-width="3" stroke-linecap="round"/>
<path d="M83.5 96.0473C84.0279 94.2118 85.1114 93.0116 86.7504 92.447C89.2089 91.6 91.54 92.728 92.4712 93.863C93.4023 94.9979 93.6975 95.9097 93.8733 96.8612C93.9905 97.4956 94.0327 98.229 94 99.0615H96.0815C98.0184 99.5783 98.9938 100.73 99.0078 102.517C99.0323 105.706 96.6955 106.5 95.5 106.5H56" stroke="#C2E8FF" stroke-width="3" stroke-linecap="round"/>
<path d="M51 100.5H83.5002" stroke="#C2E8FF" stroke-width="3" stroke-linecap="round"/>
<path d="M42 100.5H46" stroke="#C2E8FF" stroke-width="3" stroke-linecap="round"/>
<path d="M160 63.5402H169.5C169.139 60.8135 170.041 58.5325 172.204 56.6971C174.688 54.6505 177.637 55.1093 179.22 55.8155C180.804 56.5217 181.98 57.492 182.796 59.3229C183.141 60.0938 183.376 60.746 183.5 61.2795" stroke="#C2E8FF" stroke-width="3" stroke-linecap="round"/>
<path d="M179.5 65.0473C180.028 63.2118 181.111 62.0116 182.75 61.447C185.209 60.6 187.54 61.728 188.471 62.863C189.402 63.9979 189.698 64.9097 189.873 65.8612C189.99 66.4956 190.033 67.229 190 68.0615H192.082C194.018 68.5783 194.994 69.7299 195.008 71.5165C195.032 74.7063 192.695 75.4999 191.5 75.4999H152" stroke="#C2E8FF" stroke-width="3" stroke-linecap="round"/>
<path d="M147 69.5H179.5" stroke="#C2E8FF" stroke-width="3" stroke-linecap="round"/>
<path d="M138 69.5H142" stroke="#C2E8FF" stroke-width="3" stroke-linecap="round"/>
<path fill-rule="evenodd" clip-rule="evenodd" d="M137 124C137 125.38 138.119 126.5 139.5 126.5C140.88 126.5 142 125.38 142 124C142 122.62 140.88 121.5 139.5 121.5C138.119 121.5 137 122.62 137 124Z" fill="#C2E8FF"/>
<path fill-rule="evenodd" clip-rule="evenodd" d="M145.5 126.5C146.329 126.5 147 127.172 147 128C147 128.828 146.329 129.5 145.5 129.5C144.671 129.5 144 128.828 144 128C144 127.172 144.671 126.5 145.5 126.5Z" fill="#C2E8FF"/>
<path fill-rule="evenodd" clip-rule="evenodd" d="M127.853 97.5C131.857 97.5 135.344 99.7029 137.181 102.959C138.456 102.056 140.009 101.519 141.689 101.519C146.004 101.519 149.5 105.018 149.5 109.335C149.5 113.651 146.004 117.15 141.689 117.15C141.596 117.15 141.504 117.139 141.41 117.136C139.999 119.167 137.654 120.5 134.994 120.5C133.108 120.5 131.376 119.83 130.027 118.715C129.324 118.86 128.597 118.937 127.853 118.937C121.936 118.937 117.5 114.228 117.5 108.309C117.5 102.39 121.936 97.5 127.853 97.5Z" fill="#C2E8FF"/>
<path fill-rule="evenodd" clip-rule="evenodd" d="M102.753 131.027C102.753 131.027 115.608 133.535 130.217 133.535C144.825 133.535 159.753 131.027 159.753 131.027C159.753 131.027 153.611 134.819 150.453 136.013C147.294 137.207 140.819 138.184 140.819 138.184C140.819 138.184 134.433 139.899 131.253 139.969C128.073 140.038 123.771 138.555 123.771 138.555L110.893 136.013L102.753 131.027Z" fill="#8CD3F8"/>
<path d="M99.9099 126.168C99.9099 126.168 107.223 139.713 131.458 139.713C155.693 139.713 164.91 126.168 164.91 126.168" stroke="#8CD3F8" stroke-width="4" stroke-linecap="round" stroke-linejoin="round"/>
<path d="M93 129.25H100.5" stroke="#8CD3F8" stroke-width="3" stroke-linecap="round"/>
<path d="M164 129.25H171.5" stroke="#8CD3F8" stroke-width="3" stroke-linecap="round"/>
<path fill-rule="evenodd" clip-rule="evenodd" d="M129.973 106.5H135.279C135.719 106.5 136.075 106.856 136.075 107.296V107.891C136.075 108.02 136.026 108.144 135.937 108.237L131.617 112.752H135.999C136.472 112.752 136.855 113.135 136.855 113.608C136.855 114.08 136.472 114.464 135.999 114.464H129.52C129.064 114.464 128.694 114.094 128.694 113.638V113.013C128.694 112.884 128.744 112.76 128.833 112.667L133.103 108.2H129.973C129.503 108.2 129.123 107.82 129.123 107.35C129.123 106.881 129.503 106.5 129.973 106.5Z" fill="#8CD3F8"/>
<path d="M67.5 145.5H252.5" stroke="#8CD3F8" stroke-width="3" stroke-linecap="round"/>
<path d="M57.5 145.5H63.5" stroke="#8CD3F8" stroke-width="3" stroke-linecap="round"/>
<path fill-rule="evenodd" clip-rule="evenodd" d="M97.3509 83.7261L103.006 118.06C103.186 119.15 102.448 120.179 101.358 120.359C101.251 120.376 101.142 120.385 101.033 120.385H89.0151C87.9106 120.385 87.0151 119.49 87.0151 118.385C87.0151 118.263 87.0263 118.141 87.0486 118.021L93.411 83.6867C93.6123 82.6006 94.6559 81.8834 95.7419 82.0846C96.5705 82.2382 97.214 82.8946 97.3509 83.7261Z" fill="#C2E8FF"/>
<path fill-rule="evenodd" clip-rule="evenodd" d="M95.5 73.8547L104.75 120.5H86.75L95.5 73.8547Z" stroke="#8CD3F8" stroke-width="3" stroke-linecap="round" stroke-linejoin="round"/>
<path fill-rule="evenodd" clip-rule="evenodd" d="M95.5 77.5471C95.5 121.55 95.5 144.018 95.5 144.952C95.5 144.018 95.5 121.55 95.5 77.5471Z" stroke="#8CD3F8" stroke-width="3" stroke-linecap="round"/>
<path fill-rule="evenodd" clip-rule="evenodd" d="M100.75 105.617L96.25 110.569L100.75 105.617Z" stroke="#8CD3F8" stroke-width="3" stroke-linecap="round" stroke-linejoin="round"/>
<path fill-rule="evenodd" clip-rule="evenodd" d="M91.75 99.6167C94.0833 102.36 95.25 103.844 95.25 104.069C95.25 103.844 94.0833 102.36 91.75 99.6167Z" stroke="#8CD3F8" stroke-width="3" stroke-linecap="round" stroke-linejoin="round"/>
<path fill-rule="evenodd" clip-rule="evenodd" d="M169.512 65.835L182.271 118.417C182.532 119.49 181.873 120.572 180.799 120.832C180.645 120.87 180.486 120.889 180.327 120.889H157.257C156.153 120.889 155.257 119.993 155.257 118.889C155.257 118.713 155.28 118.537 155.326 118.367L169.512 65.835Z" fill="#C2E8FF"/>
<path fill-rule="evenodd" clip-rule="evenodd" d="M169.5 64.5L184.036 120.5H154.75L169.5 64.5Z" stroke="#8CD3F8" stroke-width="3" stroke-linecap="round" stroke-linejoin="round"/>
<path fill-rule="evenodd" clip-rule="evenodd" d="M169.5 67.5474C169.5 118.217 169.5 144.018 169.5 144.952C169.5 144.018 169.5 118.217 169.5 67.5474Z" stroke="#8CD3F8" stroke-width="3" stroke-linecap="round"/>
<path fill-rule="evenodd" clip-rule="evenodd" d="M179.25 101.617L170.25 111.569L179.25 101.617Z" stroke="#8CD3F8" stroke-width="3" stroke-linecap="round" stroke-linejoin="round"/>
<path fill-rule="evenodd" clip-rule="evenodd" d="M161.75 95.1167C166.75 100.86 169.25 103.844 169.25 104.069C169.25 103.844 166.75 100.86 161.75 95.1167Z" stroke="#8CD3F8" stroke-width="3" stroke-linecap="round" stroke-linejoin="round"/>
<path fill-rule="evenodd" clip-rule="evenodd" d="M175.75 88.6167L170.25 95.5691L175.75 88.6167Z" stroke="#8CD3F8" stroke-width="3" stroke-linecap="round" stroke-linejoin="round"/>
<path fill-rule="evenodd" clip-rule="evenodd" d="M186.351 91.7261L192.006 126.06C192.186 127.15 191.448 128.179 190.358 128.359C190.251 128.376 190.142 128.385 190.033 128.385H178.015C176.911 128.385 176.015 127.49 176.015 126.385C176.015 126.263 176.026 126.141 176.049 126.021L182.411 91.6867C182.612 90.6006 183.656 89.8834 184.742 90.0846C185.571 90.2382 186.214 90.8946 186.351 91.7261Z" fill="#C2E8FF"/>
<path fill-rule="evenodd" clip-rule="evenodd" d="M184.5 83.3547L193.75 128.5H175.75L184.5 83.3547Z" stroke="#8CD3F8" stroke-width="3" stroke-linecap="round" stroke-linejoin="round"/>
<path fill-rule="evenodd" clip-rule="evenodd" d="M184.5 85.5471C184.5 124.55 184.5 144.518 184.5 145.452C184.5 144.518 184.5 124.55 184.5 85.5471Z" stroke="#8CD3F8" stroke-width="3" stroke-linecap="round"/>
<path fill-rule="evenodd" clip-rule="evenodd" d="M190.75 113.617L185.25 119.569L190.75 113.617Z" stroke="#8CD3F8" stroke-width="3" stroke-linecap="round" stroke-linejoin="round"/>
<path d="M213.255 94.8379C213.255 94.8379 218.15 95.688 216.884 100.644" stroke="#C2E8FF" stroke-width="3" stroke-linecap="round"/>
<path d="M223.883 99.425C223.883 99.425 220.199 96.0912 217.074 100.14" stroke="#C2E8FF" stroke-width="3" stroke-linecap="round"/>
<path d="M200.604 113.298C200.604 113.298 204.856 110.728 207.152 115.299" stroke="#C2E8FF" stroke-width="3" stroke-linecap="round"/>
<path d="M212.008 110.242C212.008 110.242 207.041 110.143 207.339 115.249" stroke="#C2E8FF" stroke-width="3" stroke-linecap="round"/>
</g>
<defs>
<clipPath id="clip0_1340_2985">
<rect width="300" height="200" fill="white"/>
</clipPath>
</defs>
</svg>
