<svg width="300" height="200" viewBox="0 0 300 200" fill="none" xmlns="http://www.w3.org/2000/svg">
<g clip-path="url(#clip0_1340_3224)">
<path d="M61 124.5L106.5 87.5L139.5 117.5" stroke="#C2E8FF" stroke-width="3" stroke-linecap="round" stroke-linejoin="round"/>
<path d="M129.5 107L141.5 97L175 124.5" stroke="#C2E8FF" stroke-width="3" stroke-linecap="round" stroke-linejoin="round"/>
<path fill-rule="evenodd" clip-rule="evenodd" d="M57.985 118.432C58.2694 117.365 58.7294 117.36 59.015 118.432L60.5 124H56.5L57.985 118.432Z" fill="#C2E8FF"/>
<path fill-rule="evenodd" clip-rule="evenodd" d="M52.9782 116.357C53.5425 114.503 54.4576 114.503 55.0218 116.357L57.5 124.5H50.5L52.9782 116.357Z" fill="#C2E8FF"/>
<path fill-rule="evenodd" clip-rule="evenodd" d="M153.289 102.132C153.682 100.955 154.287 100.975 154.637 102.167L156.5 108.5L152 106L153.289 102.132Z" fill="#C2E8FF"/>
<path fill-rule="evenodd" clip-rule="evenodd" d="M253.557 115.366C254.078 113.507 254.922 113.508 255.443 115.366L258 124.5H251L253.557 115.366Z" fill="#C2E8FF"/>
<path fill-rule="evenodd" clip-rule="evenodd" d="M196.724 117.109C196.961 116.22 197.346 116.224 197.587 117.126L198.5 120.551L195.153 123L196.724 117.109Z" fill="#C2E8FF"/>
<path d="M252 124L228.5 105.5L212.5 119" stroke="#C2E8FF" stroke-width="3" stroke-linecap="round" stroke-linejoin="round"/>
<path d="M217 114L212.5 110L195 124.5" stroke="#C2E8FF" stroke-width="3" stroke-linecap="round" stroke-linejoin="round"/>
<path d="M42 124.5H267" stroke="#8CD3F8" stroke-width="3" stroke-linecap="round"/>
<path d="M189 125L256.5 154.5" stroke="#8CD3F8" stroke-width="3" stroke-linecap="round"/>
<path d="M188 125L79.5 169.5" stroke="#8CD3F8" stroke-width="3" stroke-linecap="round"/>
<path d="M34 124.5H37" stroke="#8CD3F8" stroke-width="3" stroke-linecap="round"/>
<path fill-rule="evenodd" clip-rule="evenodd" d="M95.7115 109.226L107.022 148.811C107.325 149.873 106.71 150.98 105.648 151.283C105.469 151.334 105.284 151.36 105.099 151.36H84.4015C83.2969 151.36 82.4015 150.465 82.4015 149.36C82.4015 149.174 82.4274 148.989 82.4784 148.811L93.7885 109.226C93.9402 108.695 94.4937 108.387 95.0247 108.539C95.357 108.634 95.6166 108.893 95.7115 109.226Z" fill="#C2E8FF"/>
<path fill-rule="evenodd" clip-rule="evenodd" d="M94.5 105.86L108 151.5H81L94.5 105.86Z" fill="#C2E8FF" stroke="#8CD3F8" stroke-width="3" stroke-linecap="round" stroke-linejoin="round"/>
<path fill-rule="evenodd" clip-rule="evenodd" d="M94.5 111C94.5 140.249 94.5 155.249 94.5 156C94.5 155.249 94.5 140.249 94.5 111Z" stroke="#8CD3F8" stroke-width="3" stroke-linecap="round" stroke-linejoin="round"/>
<path fill-rule="evenodd" clip-rule="evenodd" d="M88.25 131C91.9167 134.539 93.75 136.373 93.75 136.5C93.75 136.373 91.9167 134.539 88.25 131Z" stroke="#8CD3F8" stroke-width="3" stroke-linecap="round" stroke-linejoin="round"/>
<path fill-rule="evenodd" clip-rule="evenodd" d="M95.25 142C100.25 136.873 102.75 134.373 102.75 134.5C102.75 134.373 100.25 136.873 95.25 142Z" stroke="#8CD3F8" stroke-width="3" stroke-linecap="round" stroke-linejoin="round"/>
<path fill-rule="evenodd" clip-rule="evenodd" d="M125.5 109L134.5 138.5H116.5L125.5 109Z" fill="#C2E8FF" stroke="#8CD3F8" stroke-width="3" stroke-linecap="round" stroke-linejoin="round"/>
<path fill-rule="evenodd" clip-rule="evenodd" d="M125.5 115.5C125.5 133.422 125.5 142.589 125.5 143C125.5 142.589 125.5 133.422 125.5 115.5Z" stroke="#8CD3F8" stroke-width="3" stroke-linecap="round" stroke-linejoin="round"/>
<path fill-rule="evenodd" clip-rule="evenodd" d="M129.75 126.662C127.083 129.892 125.75 131.559 125.75 131.662C125.75 131.559 127.083 129.892 129.75 126.662Z" stroke="#8CD3F8" stroke-width="3" stroke-linecap="round" stroke-linejoin="round"/>
<path fill-rule="evenodd" clip-rule="evenodd" d="M246.5 109L255.5 138.5H237.5L246.5 109Z" fill="#C2E8FF" stroke="#8CD3F8" stroke-width="3" stroke-linecap="round" stroke-linejoin="round"/>
<path fill-rule="evenodd" clip-rule="evenodd" d="M246.5 115.5C246.5 133.422 246.5 142.589 246.5 143C246.5 142.589 246.5 133.422 246.5 115.5Z" stroke="#8CD3F8" stroke-width="3" stroke-linecap="round" stroke-linejoin="round"/>
<path fill-rule="evenodd" clip-rule="evenodd" d="M250.75 126.662C248.083 129.892 246.75 131.559 246.75 131.662C246.75 131.559 248.083 129.892 250.75 126.662Z" stroke="#8CD3F8" stroke-width="3" stroke-linecap="round" stroke-linejoin="round"/>
<path d="M140 76.5402H149.5C149.139 73.8135 150.041 71.5325 152.204 69.6971C154.688 67.6505 157.637 68.1093 159.22 68.8155C160.804 69.5217 161.98 70.492 162.796 72.3229C163.141 73.0938 163.376 73.746 163.5 74.2795" stroke="#C2E8FF" stroke-width="3" stroke-linecap="round"/>
<path d="M159.5 78.0473C160.028 76.2118 161.111 75.0116 162.75 74.447C165.209 73.6 167.54 74.728 168.471 75.863C169.402 76.9979 169.698 77.9097 169.873 78.8612C169.99 79.4956 170.033 80.229 170 81.0615H172.082C174.018 81.5783 174.994 82.7299 175.008 84.5165C175.032 87.7063 172.695 88.4999 171.5 88.4999H132" stroke="#C2E8FF" stroke-width="3" stroke-linecap="round"/>
<path d="M127 82.5H159.5" stroke="#C2E8FF" stroke-width="3" stroke-linecap="round"/>
<path d="M118 82.5H122" stroke="#C2E8FF" stroke-width="3" stroke-linecap="round"/>
<path fill-rule="evenodd" clip-rule="evenodd" d="M93.4575 94.209L96.6577 97.8564L89.4053 104.704H82.0918L93.4575 94.209Z" fill="white"/>
<path d="M64 92.5402H73.5C73.1395 89.8135 74.0408 87.5325 76.2039 85.6971C78.6877 83.6505 81.6367 84.1093 83.2205 84.8155C84.8042 85.5217 85.9803 86.492 86.7957 88.3229C87.1411 89.0938 87.3759 89.746 87.5 90.2795" stroke="#C2E8FF" stroke-width="3" stroke-linecap="round"/>
<path d="M83.5 94.0473C84.0279 92.2118 85.1114 91.0116 86.7504 90.447C89.2089 89.6 91.54 90.728 92.4712 91.863C93.4023 92.9979 93.6975 93.9097 93.8733 94.8612C93.9905 95.4956 94.0327 96.229 94 97.0615H96.0815C98.0184 97.5783 98.9938 98.7299 99.0078 100.517C99.0323 103.706 96.6955 104.5 95.5 104.5H56" stroke="#C2E8FF" stroke-width="3" stroke-linecap="round"/>
<path d="M51 98.5H83.5002" stroke="#C2E8FF" stroke-width="3" stroke-linecap="round"/>
<path d="M42 98.5H46" stroke="#C2E8FF" stroke-width="3" stroke-linecap="round"/>
<path fill-rule="evenodd" clip-rule="evenodd" d="M218.098 47.2359C210.111 37.7167 195.882 36.5058 186.318 44.5312C176.753 52.5566 175.475 66.7792 183.463 76.2984C191.45 85.8176 205.679 87.0286 215.243 79.0032C224.807 70.9778 226.086 56.7551 218.098 47.2359Z" stroke="#C2E8FF" stroke-width="3" stroke-linecap="round" stroke-linejoin="round" stroke-dasharray="67.5 0.5 0.5 9"/>
<path fill-rule="evenodd" clip-rule="evenodd" d="M192.289 47.2501C184.398 51.8064 181.711 61.928 186.289 69.8572C190.867 77.7864 200.976 80.5207 208.868 75.9644C216.759 71.408 219.446 61.2864 214.868 53.3572C210.29 45.428 200.181 42.6937 192.289 47.2501Z" stroke="#C2E8FF" stroke-width="3" stroke-linecap="round" stroke-linejoin="round" stroke-dasharray="53.5 5"/>
<path d="M200.5 72.6185C206.575 72.6185 211.5 67.6671 211.5 61.5592C211.5 55.4514 206.575 50.5 200.5 50.5C194.425 50.5 189.5 55.4514 189.5 61.5592C189.5 67.6671 194.425 72.6185 200.5 72.6185Z" fill="#C2E8FF" stroke="#8CD3F8" stroke-width="3"/>
</g>
<defs>
<clipPath id="clip0_1340_3224">
<rect width="300" height="200" fill="white"/>
</clipPath>
</defs>
</svg>
