<svg width="300" height="200" viewBox="0 0 300 200" fill="none" xmlns="http://www.w3.org/2000/svg">
<g clip-path="url(#clip0_1340_3365)">
<path d="M41.5 151.5H266.5" stroke="#C2E8FF" stroke-width="3" stroke-linecap="round"/>
<path d="M33.5 151.5H36.5" stroke="#C2E8FF" stroke-width="3" stroke-linecap="round"/>
<path d="M55 151L77.5 133L94.25 146.5" stroke="#C2E8FF" stroke-width="3" stroke-linecap="round" stroke-linejoin="round"/>
<path d="M89 141.5L94.5 137.5L110 151" stroke="#C2E8FF" stroke-width="3" stroke-linecap="round" stroke-linejoin="round"/>
<path fill-rule="evenodd" clip-rule="evenodd" d="M58.9221 141.939L56.3851 151L62 146.053L60.8481 141.939C60.6992 141.407 60.1473 141.097 59.6155 141.246C59.2791 141.34 59.0163 141.603 58.9221 141.939Z" fill="#C2E8FF"/>
<path fill-rule="evenodd" clip-rule="evenodd" d="M236.171 122.542L242.009 142.693C242.317 143.754 241.706 144.864 240.645 145.171C240.464 145.223 240.277 145.25 240.088 145.25H228.412C227.307 145.25 226.412 144.355 226.412 143.25C226.412 143.062 226.438 142.874 226.491 142.693L232.329 122.542C232.636 121.481 233.746 120.871 234.807 121.178C235.465 121.369 235.98 121.884 236.171 122.542Z" fill="white"/>
<path fill-rule="evenodd" clip-rule="evenodd" d="M234.5 118.412L243.5 144.5H225.5L234.5 118.412Z" stroke="#C2E8FF" stroke-width="3" stroke-linecap="round" stroke-linejoin="round"/>
<path fill-rule="evenodd" clip-rule="evenodd" d="M234.5 120.598C234.5 139.773 234.5 149.574 234.5 150C234.5 149.574 234.5 139.773 234.5 120.598Z" stroke="#C2E8FF" stroke-width="3" stroke-linecap="round"/>
<path fill-rule="evenodd" clip-rule="evenodd" d="M239.25 132.912C236.583 136.142 235.25 137.809 235.25 137.912C235.25 137.809 236.583 136.142 239.25 132.912Z" stroke="#C2E8FF" stroke-width="3" stroke-linecap="round" stroke-linejoin="round"/>
<path fill-rule="evenodd" clip-rule="evenodd" d="M217.324 101.75L229.555 142.677C229.871 143.736 229.27 144.85 228.212 145.166C228.026 145.222 227.833 145.25 227.639 145.25H207.009C205.904 145.25 205.009 144.355 205.009 143.25C205.009 143.056 205.037 142.863 205.093 142.677L217.324 101.75Z" fill="white"/>
<path fill-rule="evenodd" clip-rule="evenodd" d="M217.5 101.75L231.25 144.5H204.25L217.5 101.75Z" stroke="#C2E8FF" stroke-width="3" stroke-linecap="round" stroke-linejoin="round"/>
<path fill-rule="evenodd" clip-rule="evenodd" d="M217.5 103.543C217.5 133.763 217.5 149.249 217.5 150C217.5 149.249 217.5 133.763 217.5 103.543Z" stroke="#C2E8FF" stroke-width="3" stroke-linecap="round"/>
<path fill-rule="evenodd" clip-rule="evenodd" d="M211.824 122.75C215.491 126.289 217.324 128.123 217.324 128.25C217.324 128.123 215.491 126.289 211.824 122.75Z" stroke="#C2E8FF" stroke-width="3" stroke-linecap="round" stroke-linejoin="round"/>
<path fill-rule="evenodd" clip-rule="evenodd" d="M217.824 135.75C222.491 130.289 224.824 127.623 224.824 127.75C224.824 127.623 222.491 130.289 217.824 135.75Z" stroke="#C2E8FF" stroke-width="3" stroke-linecap="round" stroke-linejoin="round"/>
<path fill-rule="evenodd" clip-rule="evenodd" d="M140.157 111.694L142.592 117.01C149.48 115.426 153.045 114.58 153.285 114.47C153.449 114.396 154.517 113.629 156.266 111.694C156.812 111.09 157.769 109.899 159.135 108.122C160.149 106.331 160.861 104.935 161.272 103.934C161.683 102.933 162.268 101.167 163.029 98.6362L156.266 97.1579L140.157 111.694Z" fill="white"/>
<path d="M129.651 98.159L125.585 102.225L129.828 106.467L133.894 102.402L129.651 98.159Z" fill="#C2E8FF"/>
<path fill-rule="evenodd" clip-rule="evenodd" d="M140.801 114.751C144.661 112.594 147.967 110.106 150.72 107.286C153.474 104.467 155.477 101.143 156.73 97.3147C154.779 96.6986 153.376 96.2091 152.52 95.8459C151.664 95.4828 150.416 94.8473 148.776 93.9392L137.471 82.771L125.85 94.2898L137.118 105.556C138.337 107.481 139.161 108.98 139.591 110.053C140.021 111.126 140.424 112.692 140.801 114.751Z" fill="#C2E8FF"/>
<path fill-rule="evenodd" clip-rule="evenodd" d="M141.235 86.4363L182.071 45.6009L188.579 52.109C179.234 58.418 172.324 63.882 167.848 68.5012C166.262 70.0874 163.793 72.5565 160.441 75.9084L145.574 90.775L141.235 86.4363Z" fill="#C2E8FF"/>
<path fill-rule="evenodd" clip-rule="evenodd" d="M125.774 94.2614L137.442 82.5927L145.946 91.0963C147.761 93.212 150.041 94.8299 152.784 95.9501C155.528 97.0702 158.914 97.9357 162.943 98.5466C161.356 104.385 158.883 108.984 155.524 112.343C152.165 115.702 147.566 118.175 141.727 119.762C140.922 114.888 140.11 111.449 139.292 109.443C138.473 107.437 136.801 105.211 134.277 102.765L125.774 94.2614Z" stroke="#8CD3F8" stroke-width="3" stroke-linecap="round" stroke-linejoin="round"/>
<path d="M129.651 98.159L125.585 102.225L129.828 106.467L133.894 102.402L129.651 98.159Z" stroke="#8CD3F8" stroke-width="3" stroke-linecap="round" stroke-linejoin="round"/>
<path fill-rule="evenodd" clip-rule="evenodd" d="M141.235 86.4363L182.071 45.6009L188.579 52.109C179.234 58.418 172.324 63.882 167.848 68.5012C166.262 70.0874 163.793 72.5565 160.441 75.9084L145.574 90.775L141.235 86.4363Z" stroke="#8CD3F8" stroke-width="3" stroke-linecap="round" stroke-linejoin="round"/>
<path fill-rule="evenodd" clip-rule="evenodd" d="M148.055 79.4207L160.783 66.6927L165.26 71.0548L152.449 83.7766L148.055 79.4207Z" fill="#8CD3F8"/>
<path fill-rule="evenodd" clip-rule="evenodd" d="M120.558 111.171V114.238L186.064 121.322V118.247L120.558 111.171Z" fill="white"/>
<path fill-rule="evenodd" clip-rule="evenodd" d="M120.483 113.866L185.831 121.25V144.741L189.934 151.831L196.814 157.92H109.818L116.374 151.831L120.483 142.408V113.866Z" fill="#C2E8FF"/>
<path fill-rule="evenodd" clip-rule="evenodd" d="M185.5 117.5V140.5C185.956 145.678 187.333 149.418 189.631 151.72C191.929 154.022 194.552 156.282 197.5 158.5H109.5C112.386 156.18 114.91 153.46 117.071 150.34C119.232 147.22 120.375 143.513 120.5 139.217V110L185.5 117.5Z" stroke="#8CD3F8" stroke-width="3" stroke-linecap="round" stroke-linejoin="round"/>
<path fill-rule="evenodd" clip-rule="evenodd" d="M198.429 149.312L202 158.259H193L196.571 149.312C196.776 148.799 197.358 148.549 197.871 148.754C198.125 148.856 198.327 149.057 198.429 149.312Z" fill="#8CD3F8"/>
<path fill-rule="evenodd" clip-rule="evenodd" d="M203.679 153.07L205.75 158.259H199.75L201.821 153.07C202.026 152.557 202.608 152.307 203.121 152.512C203.375 152.614 203.577 152.815 203.679 153.07Z" fill="#8CD3F8"/>
<path fill-rule="evenodd" clip-rule="evenodd" d="M105.821 149.312L102.25 158.259H111.25L107.679 149.312C107.474 148.799 106.892 148.549 106.379 148.754C106.125 148.856 105.923 149.057 105.821 149.312Z" fill="#8CD3F8"/>
<path fill-rule="evenodd" clip-rule="evenodd" d="M99.0712 153.07L97 158.259H103L100.929 153.07C100.724 152.557 100.142 152.307 99.6293 152.512C99.3746 152.614 99.1729 152.815 99.0712 153.07Z" fill="#8CD3F8"/>
<path d="M72 158.5H247" stroke="#8CD3F8" stroke-width="3" stroke-linecap="round" stroke-linejoin="round"/>
<path d="M60 158.5H66" stroke="#8CD3F8" stroke-width="3" stroke-linecap="round" stroke-linejoin="round"/>
<path d="M174.5 117V130C174.112 139.52 178.279 145.354 187 147.5" stroke="#8CD3F8" stroke-width="3" stroke-linecap="round" stroke-linejoin="round"/>
<path d="M167.5 116V135.5C167.415 147.482 175.415 153.482 191.501 153.5" stroke="#8CD3F8" stroke-width="3" stroke-linecap="round" stroke-linejoin="round"/>
<path d="M157.5 114.5V158" stroke="#8CD3F8" stroke-width="3" stroke-linecap="round" stroke-linejoin="round"/>
<path d="M142.5 112.5V158" stroke="#8CD3F8" stroke-width="3" stroke-linecap="round" stroke-linejoin="round"/>
<path d="M136.5 112V140C136.167 151.927 127.817 157.891 111.452 157.891" stroke="#8CD3F8" stroke-width="3" stroke-linecap="round" stroke-linejoin="round"/>
<path d="M128.5 111V136.869C128.461 147.877 123.961 153.381 115 153.381" stroke="#8CD3F8" stroke-width="3" stroke-linecap="round" stroke-linejoin="round"/>
<path d="M103 62.5402H112.5C112.139 59.8135 113.041 57.5325 115.204 55.6971C117.688 53.6505 120.637 54.1093 122.22 54.8155C123.804 55.5217 124.98 56.492 125.796 58.3229C126.141 59.0938 126.376 59.746 126.5 60.2795" stroke="#C2E8FF" stroke-width="3" stroke-linecap="round"/>
<path d="M122.5 64.0473C123.028 62.2118 124.111 61.0116 125.75 60.447C128.209 59.6 130.54 60.728 131.471 61.863C132.402 62.9979 132.698 63.9097 132.873 64.8612C132.99 65.4956 133.033 66.229 133 67.0615H135.082C137.018 67.5783 137.994 68.7299 138.008 70.5165C138.032 73.7063 135.695 74.4999 134.5 74.4999H95" stroke="#C2E8FF" stroke-width="3" stroke-linecap="round"/>
<path d="M90 68.5H122.5" stroke="#C2E8FF" stroke-width="3" stroke-linecap="round"/>
<path d="M81 68.5H85" stroke="#C2E8FF" stroke-width="3" stroke-linecap="round"/>
<path d="M182 82.5402H191.5C191.139 79.8135 192.041 77.5325 194.204 75.6971C196.688 73.6505 199.637 74.1093 201.22 74.8155C202.804 75.5217 203.98 76.492 204.796 78.3229C205.141 79.0938 205.376 79.746 205.5 80.2795" stroke="#C2E8FF" stroke-width="3" stroke-linecap="round"/>
<path d="M201.5 84.0473C202.028 82.2118 203.111 81.0116 204.75 80.447C207.209 79.6 209.54 80.728 210.471 81.863C211.402 82.9979 211.698 83.9097 211.873 84.8612C211.99 85.4956 212.033 86.229 212 87.0615H214.082C216.018 87.5783 216.994 88.7299 217.008 90.5165C217.032 93.7063 214.695 94.4999 213.5 94.4999H174" stroke="#C2E8FF" stroke-width="3" stroke-linecap="round"/>
<path d="M169 88.5H201.5" stroke="#C2E8FF" stroke-width="3" stroke-linecap="round"/>
<path d="M160 88.5H164" stroke="#C2E8FF" stroke-width="3" stroke-linecap="round"/>
<path fill-rule="evenodd" clip-rule="evenodd" d="M91.6904 115.487L104.446 128.242C104.663 124.217 103.598 121.03 101.25 118.682C98.9019 116.334 95.7153 115.269 91.6904 115.487Z" fill="white"/>
<path fill-rule="evenodd" clip-rule="evenodd" d="M115.111 111.295L107.139 119.267C107.003 116.751 107.668 114.76 109.136 113.292C110.604 111.825 112.595 111.159 115.111 111.295Z" fill="white"/>
<path fill-rule="evenodd" clip-rule="evenodd" d="M104.628 128.06L91.8724 115.305C91.6547 119.329 92.7199 122.516 95.0681 124.864C97.4163 127.212 100.603 128.278 104.628 128.06Z" fill="#C2E8FF"/>
<path fill-rule="evenodd" clip-rule="evenodd" d="M107.077 119.278L115.049 111.306C115.185 113.822 114.519 115.813 113.051 117.281C111.584 118.749 109.592 119.414 107.077 119.278Z" fill="#C2E8FF"/>
<path d="M119.5 140.5C110.278 137.48 105.611 132.98 105.5 127V108.5" stroke="#8CD3F8" stroke-width="3" stroke-linecap="round" stroke-linejoin="round"/>
<path fill-rule="evenodd" clip-rule="evenodd" d="M104.628 128.056C104.845 124.031 103.78 120.845 101.432 118.497C99.0839 116.148 95.8973 115.083 91.8724 115.301C91.6547 119.326 92.7199 122.512 95.0681 124.861C97.4163 127.209 100.603 128.274 104.628 128.056Z" stroke="#8CD3F8" stroke-width="3" stroke-linecap="round" stroke-linejoin="round"/>
<path fill-rule="evenodd" clip-rule="evenodd" d="M107.077 119.276C106.94 116.76 107.606 114.769 109.074 113.301C110.541 111.834 112.533 111.168 115.049 111.304C115.185 113.82 114.519 115.811 113.051 117.279C111.584 118.746 109.592 119.412 107.077 119.276Z" stroke="#8CD3F8" stroke-width="3" stroke-linecap="round" stroke-linejoin="round"/>
</g>
<defs>
<clipPath id="clip0_1340_3365">
<rect width="300" height="200" fill="white"/>
</clipPath>
</defs>
</svg>
