<svg width="300" height="200" viewBox="0 0 300 200" fill="none" xmlns="http://www.w3.org/2000/svg">
<g clip-path="url(#clip0_1340_3533)">
<path d="M198 146L149.5 97.5L118.5 129" stroke="#C2E8FF" stroke-width="3" stroke-linecap="round" stroke-linejoin="round"/>
<path d="M125.5 120.5L114.5 110L77.5 147" stroke="#C2E8FF" stroke-width="3" stroke-linecap="round" stroke-linejoin="round"/>
<path fill-rule="evenodd" clip-rule="evenodd" d="M123.924 112.537L126.5 121L124.183 119.518L120.676 116.637L122.017 112.519C122.188 111.994 122.752 111.707 123.277 111.878C123.588 111.979 123.829 112.225 123.924 112.537Z" fill="#C2E8FF"/>
<path fill-rule="evenodd" clip-rule="evenodd" d="M187.493 125.732L191.009 138.358L183.978 132.147L185.559 125.76C185.692 125.224 186.234 124.897 186.77 125.03C187.12 125.116 187.397 125.385 187.493 125.732Z" fill="#C2E8FF"/>
<path fill-rule="evenodd" clip-rule="evenodd" d="M86.3945 131.453L84.7646 137.306L89.1298 134.718L88.3285 131.481C88.1958 130.945 87.6537 130.618 87.1176 130.751C86.7675 130.837 86.4912 131.106 86.3945 131.453Z" fill="#C2E8FF"/>
<path d="M138.041 109.5H145.275L152.428 116.59L157.077 111.941L161.405 116.269L163.947 113.727" stroke="#C2E8FF" stroke-width="3" stroke-linecap="round" stroke-linejoin="round"/>
<path fill-rule="evenodd" clip-rule="evenodd" d="M184.481 148.482C183.113 145.257 179.972 143.002 176.317 143.002C175.31 143.002 174.342 143.173 173.439 143.488C171.726 140.835 168.784 139.085 165.442 139.085C162.246 139.085 159.415 140.686 157.675 143.147C156.98 142.734 156.171 142.498 155.309 142.498C154.554 142.498 153.841 142.679 153.208 143.001C151.499 138.544 147.255 135.388 142.29 135.388C137.732 135.388 133.781 138.048 131.842 141.934C130.696 141.384 129.416 141.076 128.066 141.076C123.719 141.076 120.1 144.266 119.324 148.482H184.481Z" fill="#C2E8FF"/>
<path d="M114 147.5H179" stroke="#C2E8FF" stroke-width="3" stroke-linecap="round"/>
<path fill-rule="evenodd" clip-rule="evenodd" d="M130.481 148.482C129.113 145.257 125.972 143.002 122.317 143.002C121.31 143.002 120.342 143.173 119.439 143.488C117.726 140.835 114.784 139.085 111.442 139.085C108.246 139.085 105.415 140.686 103.675 143.147C102.98 142.734 102.171 142.498 101.309 142.498C100.554 142.498 99.8408 142.679 99.2079 143.001C97.4988 138.544 93.255 135.388 88.2903 135.388C83.7317 135.388 79.7808 138.048 77.8419 141.934C76.6956 141.384 75.4158 141.076 74.0657 141.076C69.7187 141.076 66.1 144.266 65.3239 148.482H130.481Z" fill="#C2E8FF"/>
<path d="M40 147.5H125" stroke="#C2E8FF" stroke-width="3" stroke-linecap="round"/>
<path d="M26 147.5H34" stroke="#C2E8FF" stroke-width="3" stroke-linecap="round"/>
<path d="M49 147.5H54.5" stroke="#C2E8FF" stroke-width="3" stroke-linecap="round"/>
<path fill-rule="evenodd" clip-rule="evenodd" d="M258.361 148.5H175.697C175.664 148.132 175.647 147.759 175.647 147.382C175.647 140.634 181.04 135.164 187.693 135.164C189.521 135.164 191.254 135.577 192.807 136.316C195.432 131.099 200.782 127.527 206.956 127.527C213.679 127.527 219.425 131.764 221.74 137.748C222.597 137.316 223.563 137.073 224.585 137.073C225.753 137.073 226.847 137.39 227.79 137.944C230.145 134.641 233.978 132.491 238.307 132.491C244.668 132.491 249.96 137.135 251.064 143.261C251.39 143.209 251.725 143.182 252.066 143.182C255.205 143.182 257.817 145.475 258.361 148.5Z" fill="#C2E8FF"/>
<path d="M192 147.5H262.5" stroke="#C2E8FF" stroke-width="3" stroke-linecap="round"/>
<path fill-rule="evenodd" clip-rule="evenodd" d="M152.361 148.5H69.6965C69.6636 148.132 69.6467 147.759 69.6467 147.382C69.6467 140.634 75.0401 135.164 81.6931 135.164C83.5213 135.164 85.2545 135.577 86.8067 136.316C89.4323 131.099 94.7824 127.527 100.956 127.527C107.679 127.527 113.425 131.764 115.74 137.748C116.597 137.316 117.563 137.073 118.585 137.073C119.753 137.073 120.847 137.39 121.79 137.944C124.145 134.641 127.978 132.491 132.307 132.491C138.668 132.491 143.96 137.135 145.064 143.261C145.39 143.209 145.725 143.182 146.066 143.182C149.205 143.182 151.817 145.475 152.361 148.5Z" fill="#C2E8FF"/>
<path d="M86 147.5H156.5" stroke="#C2E8FF" stroke-width="3" stroke-linecap="round"/>
<path d="M161 147.5H166.5" stroke="#C2E8FF" stroke-width="3" stroke-linecap="round"/>
<path fill-rule="evenodd" clip-rule="evenodd" d="M245.421 121.793L251.259 141.944C251.567 143.005 250.956 144.114 249.895 144.421C249.714 144.474 249.527 144.5 249.338 144.5H237.662C236.557 144.5 235.662 143.605 235.662 142.5C235.662 142.312 235.688 142.125 235.741 141.944L241.579 121.793C241.886 120.732 242.996 120.121 244.057 120.428C244.715 120.619 245.23 121.134 245.421 121.793Z" fill="#C2E8FF"/>
<path fill-rule="evenodd" clip-rule="evenodd" d="M243.5 117.662L252 144.5H235L243.5 117.662Z" stroke="#8CD3F8" stroke-width="3" stroke-linecap="round" stroke-linejoin="round"/>
<path fill-rule="evenodd" clip-rule="evenodd" d="M243.5 120.662C243.5 139.128 243.5 148.574 243.5 149C243.5 148.574 243.5 139.128 243.5 120.662Z" stroke="#8CD3F8" stroke-width="3" stroke-linecap="round"/>
<path fill-rule="evenodd" clip-rule="evenodd" d="M247.5 132.162C244.833 135.393 243.5 137.059 243.5 137.162C243.5 137.059 244.833 135.393 247.5 132.162Z" stroke="#8CD3F8" stroke-width="3" stroke-linecap="round" stroke-linejoin="round"/>
<path fill-rule="evenodd" clip-rule="evenodd" d="M227.324 100L239.576 141.939C239.886 142.999 239.277 144.11 238.217 144.42C238.035 144.473 237.846 144.5 237.656 144.5H216.992C215.887 144.5 214.992 143.605 214.992 142.5C214.992 142.31 215.019 142.121 215.072 141.939L227.324 100Z" fill="#C2E8FF"/>
<path fill-rule="evenodd" clip-rule="evenodd" d="M227.5 101L240.5 144.5H214.5L227.5 101Z" stroke="#8CD3F8" stroke-width="3" stroke-linecap="round" stroke-linejoin="round"/>
<path fill-rule="evenodd" clip-rule="evenodd" d="M227.5 104C227.5 133.249 227.5 148.249 227.5 149C227.5 148.249 227.5 133.249 227.5 104Z" stroke="#8CD3F8" stroke-width="3" stroke-linecap="round"/>
<path fill-rule="evenodd" clip-rule="evenodd" d="M221.824 122C225.491 125.539 227.324 127.373 227.324 127.5C227.324 127.373 225.491 125.539 221.824 122Z" stroke="#8CD3F8" stroke-width="3" stroke-linecap="round" stroke-linejoin="round"/>
<path fill-rule="evenodd" clip-rule="evenodd" d="M227.824 135C232.491 129.539 234.824 126.873 234.824 127C234.824 126.873 232.491 129.539 227.824 135Z" stroke="#8CD3F8" stroke-width="3" stroke-linecap="round" stroke-linejoin="round"/>
<path fill-rule="evenodd" clip-rule="evenodd" d="M162.211 128.466L161.044 134.071V151.138H202.933L201.058 154.584H221.953L221.579 138.573L217.884 130.922L209.111 126.614C198.653 126.347 188.925 126.213 179.928 126.213C170.931 126.213 165.026 126.964 162.211 128.466Z" fill="#C2E8FF"/>
<path fill-rule="evenodd" clip-rule="evenodd" d="M180.448 119.896H193.649C194.754 119.896 195.649 120.792 195.649 121.896V124.267C195.649 125.372 194.754 126.267 193.649 126.267H180.448C179.343 126.267 178.448 125.372 178.448 124.267V121.896C178.448 120.792 179.343 119.896 180.448 119.896Z" fill="#C2E8FF"/>
<path fill-rule="evenodd" clip-rule="evenodd" d="M160.694 151.639H203.078L201.183 154.588L221.895 155.24L219.634 160.479L214.29 162.397L167.346 162.805L160.694 162.397V151.639Z" fill="white"/>
<path d="M202.339 170.545C206.209 170.545 209.347 167.408 209.347 163.537C209.347 159.667 206.209 156.529 202.339 156.529C198.468 156.529 195.331 159.667 195.331 163.537C195.331 167.408 198.468 170.545 202.339 170.545Z" fill="white"/>
<path fill-rule="evenodd" clip-rule="evenodd" d="M161.264 133.118C163.426 130.389 165.62 129.016 167.844 129C170.069 128.983 183.105 128.983 206.952 129C213.227 129.262 217.918 132.439 221.027 138.531C224.135 144.622 223.465 142.469 219.015 132.072C216.665 129.796 215.449 128.627 215.369 128.567C215.289 128.507 212.998 127.712 208.498 126.182H197.429H167.643L163.388 127.562L161.264 129.931V133.118Z" fill="white"/>
<path fill-rule="evenodd" clip-rule="evenodd" d="M214.125 162.5C218.347 162.5 222.5 158.203 222.5 153.981V140.602C222.5 132.158 214.924 125.5 206.48 125.5H168.254C164.032 125.5 160.5 128.735 160.5 132.957V162.5H195.331C195.331 166.37 198.468 169.59 202.339 169.59C206.209 169.59 209.347 166.37 209.347 162.5H214.125Z" stroke="#8CD3F8" stroke-width="3" stroke-linecap="round" stroke-linejoin="round"/>
<path fill-rule="evenodd" clip-rule="evenodd" d="M180.5 118.5H193.5C194.605 118.5 195.5 119.395 195.5 120.5V125.5H178.5V120.5C178.5 119.395 179.395 118.5 180.5 118.5Z" stroke="#8CD3F8" stroke-width="3"/>
<path fill-rule="evenodd" clip-rule="evenodd" d="M170.5 135.5H183.5C184.052 135.5 184.5 135.948 184.5 136.5V161.5C184.5 162.052 184.052 162.5 183.5 162.5H170.5C169.948 162.5 169.5 162.052 169.5 161.5V136.5C169.5 135.948 169.948 135.5 170.5 135.5Z" stroke="#8CD3F8" stroke-width="3"/>
<path fill-rule="evenodd" clip-rule="evenodd" d="M193.5 135.5H210.5C211.052 135.5 211.5 135.948 211.5 136.5V142.5C211.5 143.052 211.052 143.5 210.5 143.5H193.5C192.948 143.5 192.5 143.052 192.5 142.5V136.5C192.5 135.948 192.948 135.5 193.5 135.5Z" stroke="#8CD3F8" stroke-width="3"/>
<path d="M160.927 150.5H202.976L200.424 154.5H221.77" stroke="#8CD3F8" stroke-width="3"/>
<path d="M211.898 162.5H145" stroke="#8CD3F8" stroke-width="3" stroke-linecap="round"/>
<path d="M152.5 155.893V168.635" stroke="#8CD3F8" stroke-width="3" stroke-linecap="round"/>
<path d="M49.692 143.004C50.0193 143.205 50.0688 143.482 49.9201 143.745C49.7168 144.107 48.8729 144.288 47.8694 143.763C47.8664 144.137 47.8545 144.556 47.8298 145.046C47.8149 145.326 47.6185 145.992 47.799 146.162C48.2353 146.573 48.3742 146.909 48.275 147.34C48.2205 147.578 47.8764 147.754 47.4569 147.861C47.1108 147.968 46.6864 148.04 46.2521 147.976H46.2511C45.1444 147.891 44.7061 147.68 44.7279 147.228C44.7299 147.165 44.7418 147.097 44.7627 147.021C44.8519 146.707 44.9302 146.364 44.9292 146.119C44.9283 146.036 44.9203 145.965 44.8985 145.908C44.8787 145.852 44.7855 145.669 44.6456 145.573C44.6109 145.55 44.5733 145.531 44.5326 145.521C44.4106 145.491 44.2658 145.54 44.1092 145.76C44.0685 145.816 44.0249 145.901 44.011 145.993C43.9971 146.084 44.011 146.182 44.0893 146.265C44.134 146.312 44.1687 146.366 44.1954 146.424C44.2212 146.482 44.2391 146.544 44.248 146.608C44.2986 146.993 44.0199 147.455 43.4041 147.583C43.1334 147.638 42.8815 147.676 42.6475 147.693C41.9454 147.746 41.409 147.625 41.053 147.33C40.814 147.134 41.0123 146.297 41.2156 145.577C39.7579 145.05 39.4624 144.01 39.4624 144.01C39.7906 144.179 40.1962 144.558 40.2577 144.334C40.3192 144.111 38.0295 142.73 39.4852 140.274C39.4138 141.744 40.1486 141.961 40.2845 141.976C40.4193 141.992 40.3846 141.789 40.3053 141.47C40.7882 141.605 41.1571 142.012 41.4248 142.345C41.4367 142.297 41.4427 142.243 41.4546 142.197C41.4397 141.982 41.4863 141.71 41.5785 141.419C41.7461 140.899 42.0684 140.327 42.4482 139.909C42.3461 139.862 42.2528 139.814 42.1805 139.77C40.7416 138.863 38.4728 136.502 41.054 133.319C41.1888 133.153 41.3336 133.002 41.4893 132.863C41.2454 129.996 42.9906 131.128 43.7671 131.764C45.0373 131.504 46.4306 131.651 47.5987 132.108C48.4793 131.523 50.1502 130.732 49.6405 133.545C49.6405 133.545 50.6965 137.208 48.0618 139.165C47.6007 139.508 47.1287 139.76 46.6636 139.941C46.6953 139.99 46.7112 140.025 46.7191 140.047C46.729 140.058 46.738 140.07 46.7489 140.082C47.5224 140.238 47.6413 140.824 47.6413 140.824C47.6364 140.956 47.6582 141.092 47.6909 141.275C47.7623 141.376 47.8337 141.478 47.9071 141.588C47.9567 141.662 48.0271 141.749 48.0995 141.837C48.4664 142.02 48.9106 142.059 48.9176 142.06C48.982 142.055 49.0594 142.069 49.102 142.078C49.3063 142.116 49.7178 142.109 49.7902 142.449C49.8229 142.603 49.7049 142.687 49.6266 142.765C49.5592 142.83 49.6107 142.954 49.692 143.004Z" fill="#C2E8FF"/>
<path d="M64.4179 116.199C64.8544 116.669 64.0526 117.465 64.0526 117.465L64.045 117.454C64.1833 118.101 64.2571 118.913 64.3165 119.591C64.4095 120.652 64.9576 122.115 65.1452 122.592L65.1624 122.566C65.1624 122.566 68.9781 125.287 69.7869 126.698C70.4517 127.857 70.0645 128.524 69.4901 129.391C69.0194 130.101 69.671 129.955 69.9854 130.1C70.4298 130.305 70.7301 132.321 68.9544 132.716C68.0572 132.916 67.2146 132.491 66.568 131.888C66.648 132.169 66.7327 132.459 66.822 132.757C67.5226 135.092 67.9885 138.947 68.8255 141.962C69.3146 143.731 70.3262 144.637 70.3262 145.708C70.3262 147.137 68.7123 147.849 66.3752 147.581C65.0444 147.429 64.5389 146.832 64.3165 145.173C64.0703 143.343 61.4215 142.873 60.0873 142.818C57.9372 142.729 55.1363 143.996 55.0244 145.333C54.9357 146.406 55.0735 147.542 52.9657 147.902C50.4616 148.331 49.0707 147.266 49.0707 146.297C49.0707 145.72 49.7692 143.903 50.7146 141.71C52.2338 138.179 54.3887 133.671 55.3034 131.779C56.0177 130.302 56.5084 128.569 56.9081 127.013C56.0748 126.452 55.1169 125.595 54.227 124.213C53.8497 123.623 53.2105 121.618 53.0626 119.795C52.6921 118.034 52.9832 116.143 54.8505 116.012C55.9871 115.93 56.0773 117.115 55.7713 118.664C55.7672 118.672 55.7672 118.68 55.7672 118.689C55.7157 120.216 55.8649 121.177 55.9192 121.339C56.2734 121.943 57.028 122.432 57.6305 122.769C57.826 122.799 58.0186 122.809 58.1988 122.81C58.6859 121.544 58.9775 119.006 59.3826 117.578C59.1966 117.361 58.7552 116.767 59.1102 116.393C59.4506 116.034 59.8638 116.275 60.0752 116.445C60.9493 115.984 62.8101 116.144 63.3842 116.298C63.5597 116.14 64.0395 115.792 64.4179 116.199ZM65.2474 125.766L65.2615 125.879C65.3235 126.374 65.41 126.935 65.5286 127.57C65.6215 127.352 65.7395 127.111 65.8852 126.843C66.0426 126.55 65.6808 126.156 65.2474 125.766Z" fill="#C2E8FF"/>
<path fill-rule="evenodd" clip-rule="evenodd" d="M211.987 35.4624C222.498 40.3639 227.046 52.8585 222.144 63.3698C217.243 73.8812 204.748 78.4288 194.237 73.5273C187.227 70.2584 182.869 63.6123 182.198 56.4296C183.476 58.3726 185.293 59.9957 187.555 61.0507C194.062 64.0849 201.797 61.2697 204.831 54.7627C207.865 48.2557 205.05 40.5209 198.543 37.4867C196.642 36.6002 194.636 36.213 192.673 36.2713C198.394 33.0009 205.561 32.4659 211.987 35.4624Z" stroke="#C2E8FF" stroke-width="3" stroke-linecap="round" stroke-linejoin="round"/>
<path d="M131.5 85C132.881 85 134 83.8807 134 82.5C134 81.1193 132.881 80 131.5 80C130.119 80 129 81.1193 129 82.5C129 83.8807 130.119 85 131.5 85Z" fill="#C2E8FF"/>
<path d="M59.5 90C60.8807 90 62 88.8807 62 87.5C62 86.1193 60.8807 85 59.5 85C58.1193 85 57 86.1193 57 87.5C57 88.8807 58.1193 90 59.5 90Z" fill="#C2E8FF"/>
<path d="M243.5 88C244.881 88 246 86.8807 246 85.5C246 84.1193 244.881 83 243.5 83C242.119 83 241 84.1193 241 85.5C241 86.8807 242.119 88 243.5 88Z" fill="#C2E8FF"/>
<path d="M202.5 110C203.881 110 205 108.881 205 107.5C205 106.119 203.881 105 202.5 105C201.119 105 200 106.119 200 107.5C200 108.881 201.119 110 202.5 110Z" fill="#C2E8FF"/>
<path d="M177.5 78C178.881 78 180 76.8807 180 75.5C180 74.1193 178.881 73 177.5 73C176.119 73 175 74.1193 175 75.5C175 76.8807 176.119 78 177.5 78Z" fill="#C2E8FF"/>
<path fill-rule="evenodd" clip-rule="evenodd" d="M223.728 91.711L221 90.7194L223.728 89.7278L224.719 87L225.711 89.7278L228.439 90.7194L225.711 91.711L224.719 94.4388L223.728 91.711Z" stroke="#C2E8FF" stroke-width="3" stroke-linecap="round" stroke-linejoin="round"/>
<path fill-rule="evenodd" clip-rule="evenodd" d="M182.728 98.711L180 97.7194L182.728 96.7278L183.719 94L184.711 96.7278L187.439 97.7194L184.711 98.711L183.719 101.439L182.728 98.711Z" stroke="#C2E8FF" stroke-width="3" stroke-linecap="round" stroke-linejoin="round"/>
<path fill-rule="evenodd" clip-rule="evenodd" d="M98.7278 95.711L96 94.7194L98.7278 93.7278L99.7194 91L100.711 93.7278L103.439 94.7194L100.711 95.711L99.7194 98.4388L98.7278 95.711Z" stroke="#C2E8FF" stroke-width="3" stroke-linecap="round" stroke-linejoin="round"/>
<path fill-rule="evenodd" clip-rule="evenodd" d="M154.728 60.7109L152 59.7194L154.728 58.7278L155.719 56L156.711 58.7278L159.439 59.7194L156.711 60.7109L155.719 63.4388L154.728 60.7109Z" stroke="#C2E8FF" stroke-width="3" stroke-linecap="round" stroke-linejoin="round"/>
<path fill-rule="evenodd" clip-rule="evenodd" d="M72.0765 149.431L103.903 132.499C104.39 132.24 104.996 132.425 105.255 132.913C105.264 132.928 105.271 132.944 105.279 132.96L109.459 141.925C109.693 142.425 109.476 143.02 108.976 143.254C108.96 143.261 108.944 143.268 108.927 143.275L75.4996 156.772C75.0064 156.971 74.4437 156.749 74.2189 156.267L71.6399 150.736C71.4151 150.254 71.607 149.681 72.0765 149.431Z" fill="white"/>
<path fill-rule="evenodd" clip-rule="evenodd" d="M76.9802 147.084L89.829 139.146C90.2988 138.856 90.915 139.001 91.2053 139.471C91.2259 139.504 91.2444 139.539 91.2609 139.574L95.3818 148.411C95.6152 148.912 95.3987 149.507 94.8981 149.74C94.8628 149.757 94.8264 149.771 94.7894 149.783L80.4489 154.523C79.9675 154.682 79.4431 154.456 79.2288 153.996L76.5995 148.358C76.3852 147.898 76.5488 147.351 76.9802 147.084Z" fill="#C2E8FF"/>
<path fill-rule="evenodd" clip-rule="evenodd" d="M72.0765 149.431L103.903 132.499C104.39 132.24 104.996 132.425 105.255 132.913C105.264 132.928 105.271 132.944 105.279 132.96L109.459 141.925C109.693 142.425 109.476 143.02 108.976 143.254C108.96 143.261 108.944 143.268 108.927 143.275L75.4996 156.772C75.0064 156.971 74.4437 156.749 74.2189 156.267L71.6399 150.736C71.4151 150.254 71.607 149.681 72.0765 149.431Z" stroke="#8CD3F8" stroke-width="3" stroke-linecap="round" stroke-linejoin="round"/>
<path d="M72.3663 153.557L67.8347 155.671C67.5845 155.787 67.4762 156.085 67.5929 156.335C67.7096 156.585 68.0071 156.694 68.2574 156.577L72.7889 154.464C73.0392 154.347 73.1475 154.05 73.0307 153.799C72.914 153.549 72.6166 153.441 72.3663 153.557Z" fill="white" stroke="#8CD3F8" stroke-width="3" stroke-linecap="round" stroke-linejoin="round"/>
<path d="M103.914 130.032L110.976 145.177" stroke="#8CD3F8" stroke-width="3" stroke-linecap="round"/>
<path d="M64.8989 152.924L68.5799 160.818" stroke="#8CD3F8" stroke-width="3" stroke-linecap="round"/>
<path d="M89.5 151.788V157.408" stroke="#8CD3F8" stroke-width="3" stroke-linecap="round" stroke-linejoin="round"/>
<path d="M89.5 157.788L82.5 169.408" stroke="#8CD3F8" stroke-width="3" stroke-linecap="round" stroke-linejoin="round"/>
<path d="M89.5 157.788L96.5 169.408" stroke="#8CD3F8" stroke-width="3" stroke-linecap="round" stroke-linejoin="round"/>
<path d="M85.5 157.5H93.5" stroke="#8CD3F8" stroke-width="3" stroke-linecap="round" stroke-linejoin="round"/>
</g>
<defs>
<clipPath id="clip0_1340_3533">
<rect width="300" height="200" fill="white"/>
</clipPath>
</defs>
</svg>
