<svg width="300" height="200" viewBox="0 0 300 200" fill="none" xmlns="http://www.w3.org/2000/svg">
<g clip-path="url(#clip0_1340_3706)">
<path d="M84 84.5402H93.5C93.1395 81.8135 94.0408 79.5325 96.2039 77.6971C98.6877 75.6505 101.637 76.1093 103.22 76.8155C104.804 77.5217 105.98 78.492 106.796 80.3229C107.141 81.0938 107.376 81.746 107.5 82.2795" stroke="#C2E8FF" stroke-width="3" stroke-linecap="round"/>
<path d="M103.5 86.0471C104.028 84.2115 105.111 83.0114 106.75 82.4467C109.209 81.5997 111.54 82.7277 112.471 83.8627C113.402 84.9977 113.698 85.9095 113.873 86.861C113.99 87.4953 114.033 88.2288 114 89.0613H116.082C118.018 89.578 118.994 90.7297 119.008 92.5163C119.032 95.706 116.695 96.4997 115.5 96.4997H76" stroke="#C2E8FF" stroke-width="3" stroke-linecap="round"/>
<path d="M71 90.5H103.5" stroke="#C2E8FF" stroke-width="3" stroke-linecap="round"/>
<path d="M62 90.5H66" stroke="#C2E8FF" stroke-width="3" stroke-linecap="round"/>
<path d="M192 61.5402H201.5C201.139 58.8135 202.041 56.5325 204.204 54.6971C206.688 52.6505 209.637 53.1093 211.22 53.8155C212.804 54.5217 213.98 55.492 214.796 57.3229C215.141 58.0938 215.376 58.746 215.5 59.2795" stroke="#C2E8FF" stroke-width="3" stroke-linecap="round"/>
<path d="M211.5 63.0471C212.028 61.2115 213.111 60.0114 214.75 59.4467C217.209 58.5997 219.54 59.7277 220.471 60.8627C221.402 61.9977 221.698 62.9095 221.873 63.861C221.99 64.4953 222.033 65.2288 222 66.0613H224.082C226.018 66.578 226.994 67.7297 227.008 69.5163C227.032 72.706 224.695 73.4997 223.5 73.4997H184" stroke="#C2E8FF" stroke-width="3" stroke-linecap="round"/>
<path d="M179 67.5H211.5" stroke="#C2E8FF" stroke-width="3" stroke-linecap="round"/>
<path d="M170 67.5H174" stroke="#C2E8FF" stroke-width="3" stroke-linecap="round"/>
<path fill-rule="evenodd" clip-rule="evenodd" d="M145.981 161.232C144.613 158.007 141.472 155.752 137.817 155.752C136.81 155.752 135.842 155.923 134.939 156.238C133.226 153.585 130.284 151.835 126.942 151.835C123.746 151.835 120.915 153.436 119.175 155.897C118.48 155.484 117.671 155.248 116.809 155.248C116.054 155.248 115.341 155.429 114.708 155.751C112.999 151.294 108.755 148.138 103.79 148.138C99.2317 148.138 95.2808 150.798 93.3419 154.684C92.1956 154.134 90.9158 153.826 89.5657 153.826C85.2187 153.826 81.6 157.016 80.8239 161.232H145.981Z" fill="#C2E8FF"/>
<path d="M75.5 160.5H140.5" stroke="#C2E8FF" stroke-width="3" stroke-linecap="round"/>
<path fill-rule="evenodd" clip-rule="evenodd" d="M248.861 161.25H166.197C166.164 160.882 166.147 160.509 166.147 160.132C166.147 153.384 171.54 147.914 178.193 147.914C180.021 147.914 181.754 148.327 183.307 149.066C185.932 143.849 191.282 140.277 197.456 140.277C204.179 140.277 209.925 144.514 212.24 150.498C213.097 150.066 214.063 149.823 215.085 149.823C216.253 149.823 217.347 150.14 218.29 150.694C220.645 147.391 224.478 145.241 228.807 145.241C235.168 145.241 240.46 149.885 241.564 156.011C241.89 155.959 242.225 155.932 242.566 155.932C245.705 155.932 248.317 158.225 248.861 161.25Z" fill="#C2E8FF"/>
<path d="M182.5 160.5H253" stroke="#C2E8FF" stroke-width="3" stroke-linecap="round"/>
<path d="M158 67H151V78H158V67Z" fill="#C2E8FF" stroke="#8CD3F8" stroke-width="3"/>
<path d="M160 57H149C147.895 57 147 57.8954 147 59V66C147 67.1046 147.895 68 149 68H160C161.105 68 162 67.1046 162 66V59C162 57.8954 161.105 57 160 57Z" fill="#C2E8FF"/>
<path d="M154.5 160.5C178.524 160.5 198 141.024 198 117C198 92.9756 178.524 73.5 154.5 73.5C130.476 73.5 111 92.9756 111 117C111 141.024 130.476 160.5 154.5 160.5Z" fill="#C2E8FF"/>
<path d="M154.5 153.5C174.658 153.5 191 137.158 191 117C191 96.8416 174.658 80.5 154.5 80.5C134.342 80.5 118 96.8416 118 117C118 137.158 134.342 153.5 154.5 153.5Z" fill="white"/>
<path d="M161.5 59H147.5V61H161.5V59Z" fill="white"/>
<path fill-rule="evenodd" clip-rule="evenodd" d="M114.09 103.614C114.389 103.256 119.683 90.6235 129.202 84.6045C138.721 78.5854 146.186 76.1042 156.582 76.6699C166.978 77.2356 175.153 80.9485 180.744 85.3916C186.335 89.8347 192.455 97.3918 195.641 105.391C197.764 110.724 196.339 106.989 191.366 94.1868L181.281 83.6953L167.212 76.4158L155.781 74.6924L144.707 75.5608L134.372 79.2935L124.626 85.7986L117.454 95.0317C115.012 100.991 113.891 103.852 114.09 103.614Z" fill="white"/>
<path fill-rule="evenodd" clip-rule="evenodd" d="M147.5 64.3681C144.757 62.1689 143 58.7896 143 55C143 48.3726 148.373 43 155 43C161.627 43 167 48.3726 167 55C167 59.232 164.809 62.9523 161.5 65.0888V58.5C161.5 57.9477 161.052 57.5 160.5 57.5H148.5C147.948 57.5 147.5 57.9477 147.5 58.5V64.3681Z" stroke="#8CD3F8" stroke-width="3" stroke-linecap="round" stroke-linejoin="round"/>
<path fill-rule="evenodd" clip-rule="evenodd" d="M148.5 57.5H160.5C161.052 57.5 161.5 57.9477 161.5 58.5V67.5C161.5 68.0523 161.052 68.5 160.5 68.5H148.5C147.948 68.5 147.5 68.0523 147.5 67.5V58.5C147.5 57.9477 147.948 57.5 148.5 57.5Z" stroke="#8CD3F8" stroke-width="3" stroke-linecap="round" stroke-linejoin="round"/>
<path fill-rule="evenodd" clip-rule="evenodd" d="M150.5 68.5H158.5V73.5C157.19 73.381 155.865 73.3214 154.524 73.3214C153.183 73.3214 151.841 73.381 150.5 73.5V68.5Z" stroke="#8CD3F8" stroke-width="3"/>
<path d="M71.5 160.5H254" stroke="#8CD3F8" stroke-width="3" stroke-linecap="round"/>
<path d="M56 160.5H66" stroke="#8CD3F8" stroke-width="3" stroke-linecap="round"/>
<path d="M154.5 160.5C178.524 160.5 198 141.024 198 117C198 92.9756 178.524 73.5 154.5 73.5C130.476 73.5 111 92.9756 111 117C111 141.024 130.476 160.5 154.5 160.5Z" stroke="#8CD3F8" stroke-width="3"/>
<path d="M154.5 153.5C174.658 153.5 191 137.158 191 117C191 96.8416 174.658 80.5 154.5 80.5C134.342 80.5 118 96.8416 118 117C118 137.158 134.342 153.5 154.5 153.5Z" stroke="#8CD3F8" stroke-width="3"/>
<path d="M154.5 137.5C165.822 137.5 175 128.322 175 117C175 105.678 165.822 96.5 154.5 96.5C143.178 96.5 134 105.678 134 117C134 128.322 143.178 137.5 154.5 137.5Z" stroke="#C2E8FF" stroke-width="6"/>
<path fill-rule="evenodd" clip-rule="evenodd" d="M154.5 89.5L158 97.5H151L154.5 89.5Z" fill="#C2E8FF"/>
<path fill-rule="evenodd" clip-rule="evenodd" d="M154.5 144.5L158 136.5H151L154.5 144.5Z" fill="#C2E8FF"/>
<path fill-rule="evenodd" clip-rule="evenodd" d="M182 117L174 113.5V120.5L182 117Z" fill="#C2E8FF"/>
<path fill-rule="evenodd" clip-rule="evenodd" d="M127 117L135 113.5V120.5L127 117Z" fill="#C2E8FF"/>
<path fill-rule="evenodd" clip-rule="evenodd" d="M177.357 140.211L161.397 111.487L148.633 124.251L177.357 140.211Z" fill="#C2E8FF"/>
<path fill-rule="evenodd" clip-rule="evenodd" d="M132.673 95.5266L148.632 124.251L161.397 111.487L132.673 95.5266Z" fill="#8CD3F8"/>
<path d="M155 122.502C157.485 122.502 159.5 120.487 159.5 118.001C159.5 115.515 157.485 113.5 155 113.5C152.515 113.5 150.5 115.515 150.5 118.001C150.5 120.487 152.515 122.502 155 122.502Z" fill="#8CD3F8"/>
<path d="M155 122.502C157.485 122.502 159.5 120.487 159.5 118.001C159.5 115.515 157.485 113.5 155 113.5C152.515 113.5 150.5 115.515 150.5 118.001C150.5 120.487 152.515 122.502 155 122.502Z" stroke="white" stroke-width="3"/>
<path fill-rule="evenodd" clip-rule="evenodd" d="M230.421 131.793L236.259 151.944C236.567 153.005 235.956 154.114 234.895 154.421C234.714 154.474 234.527 154.5 234.338 154.5H222.662C221.557 154.5 220.662 153.605 220.662 152.5C220.662 152.312 220.688 152.125 220.741 151.944L226.579 131.793C226.886 130.732 227.996 130.121 229.057 130.428C229.715 130.619 230.23 131.134 230.421 131.793Z" fill="#C2E8FF"/>
<path fill-rule="evenodd" clip-rule="evenodd" d="M228.5 127.662L237 154.5H220L228.5 127.662Z" stroke="#8CD3F8" stroke-width="3" stroke-linecap="round" stroke-linejoin="round"/>
<path fill-rule="evenodd" clip-rule="evenodd" d="M228.5 130.662C228.5 151.128 228.5 161.574 228.5 162C228.5 161.574 228.5 151.128 228.5 130.662Z" stroke="#8CD3F8" stroke-width="3" stroke-linecap="round"/>
<path fill-rule="evenodd" clip-rule="evenodd" d="M232.5 142.162C229.833 145.393 228.5 147.059 228.5 147.162C228.5 147.059 229.833 145.393 232.5 142.162Z" stroke="#8CD3F8" stroke-width="3" stroke-linecap="round" stroke-linejoin="round"/>
<path fill-rule="evenodd" clip-rule="evenodd" d="M209.324 110L221.576 151.939C221.886 152.999 221.277 154.11 220.217 154.42C220.035 154.473 219.846 154.5 219.656 154.5H198.992C197.887 154.5 196.992 153.605 196.992 152.5C196.992 152.31 197.019 152.121 197.072 151.939L209.324 110Z" fill="#C2E8FF"/>
<path fill-rule="evenodd" clip-rule="evenodd" d="M209.5 111L222.5 154.5H196.5L209.5 111Z" stroke="#8CD3F8" stroke-width="3" stroke-linecap="round" stroke-linejoin="round"/>
<path fill-rule="evenodd" clip-rule="evenodd" d="M209.5 114C209.5 143.249 209.5 158.249 209.5 159C209.5 158.249 209.5 143.249 209.5 114Z" stroke="#8CD3F8" stroke-width="3" stroke-linecap="round"/>
<path fill-rule="evenodd" clip-rule="evenodd" d="M204.824 130C207.824 132.873 209.324 134.373 209.324 134.5C209.324 134.373 207.824 132.873 204.824 130Z" stroke="#8CD3F8" stroke-width="3" stroke-linecap="round" stroke-linejoin="round"/>
<path fill-rule="evenodd" clip-rule="evenodd" d="M209.824 145C214.491 139.539 216.824 136.873 216.824 137C216.824 136.873 214.491 139.539 209.824 145Z" stroke="#8CD3F8" stroke-width="3" stroke-linecap="round" stroke-linejoin="round"/>
<path fill-rule="evenodd" clip-rule="evenodd" d="M101.171 131.793L107.009 151.944C107.317 153.005 106.706 154.114 105.645 154.421C105.464 154.474 105.277 154.5 105.088 154.5H93.4117C92.3072 154.5 91.4117 153.605 91.4117 152.5C91.4117 152.312 91.4383 152.125 91.4907 151.944L97.329 131.793C97.6364 130.732 98.7457 130.121 99.8066 130.428C100.465 130.619 100.98 131.134 101.171 131.793Z" fill="#C2E8FF"/>
<path fill-rule="evenodd" clip-rule="evenodd" d="M99.5 127.662L108.5 154.5H90.5L99.5 127.662Z" stroke="#8CD3F8" stroke-width="3" stroke-linecap="round" stroke-linejoin="round"/>
<path fill-rule="evenodd" clip-rule="evenodd" d="M99.5 130.25C99.5 149.157 99.5 158.824 99.5 159.25C99.5 158.824 99.5 149.157 99.5 130.25Z" stroke="#8CD3F8" stroke-width="3"/>
<path fill-rule="evenodd" clip-rule="evenodd" d="M104.25 144.662L99.9614 150.227L104.25 144.662Z" stroke="#8CD3F8" stroke-width="3" stroke-linecap="round" stroke-linejoin="round"/>
<path d="M67.2552 109.838C67.2552 109.838 72.15 110.688 70.8837 115.644" stroke="#C2E8FF" stroke-width="3" stroke-linecap="round"/>
<path d="M77.8828 114.425C77.8828 114.425 74.1994 111.091 71.0737 115.14" stroke="#C2E8FF" stroke-width="3" stroke-linecap="round"/>
<path d="M79.6042 128.298C79.6042 128.298 83.856 125.728 86.1516 130.299" stroke="#C2E8FF" stroke-width="3" stroke-linecap="round"/>
<path d="M91.0082 125.242C91.0082 125.242 86.0411 125.143 86.3386 130.249" stroke="#C2E8FF" stroke-width="3" stroke-linecap="round"/>
</g>
<defs>
<clipPath id="clip0_1340_3706">
<rect width="300" height="200" fill="white"/>
</clipPath>
</defs>
</svg>
