<svg width="300" height="200" viewBox="0 0 300 200" fill="none" xmlns="http://www.w3.org/2000/svg">
<g clip-path="url(#clip0_1340_3859)">
<path d="M127.168 162.853C144.932 158.32 156.522 155.326 161.939 153.872C166.522 152.642 168.789 151.685 169.159 150.307C169.445 149.241 169.117 147.759 164.595 146.741C156.175 145.188 135.272 143.095 129.975 142.303C124.677 141.512 106.053 140.215 106.095 134.654C106.137 129.092 120.057 127.651 125.468 126.817C130.878 125.984 132.284 124.57 132.284 123.043C132.284 122.026 129.743 120.694 124.661 119.047" stroke="#C2E8FF" stroke-width="3" stroke-linecap="round" stroke-linejoin="round"/>
<path d="M135.592 118.75C141.589 119.607 145.192 120.434 146.401 121.231C148.215 122.426 148.848 125.062 145.798 126.301C143.765 127.128 141.293 127.94 138.382 128.739C136.104 129.698 134.964 130.733 134.964 131.844C134.964 133.51 136.42 134.435 140.396 135.062C144.372 135.69 174.298 138.271 176.597 138.378C178.896 138.485 216.444 141.453 230.305 145.236C244.165 149.019 250.026 153.15 250.796 156.353C251.31 158.487 250.693 160.242 248.944 161.616" stroke="#C2E8FF" stroke-width="3" stroke-linecap="round" stroke-linejoin="round"/>
<path d="M256.018 118.5H135.535" stroke="#C2E8FF" stroke-width="3" stroke-linecap="round"/>
<path d="M236.5 118.5L199.5 88L170.75 110.5" stroke="#C2E8FF" stroke-width="3" stroke-linecap="round" stroke-linejoin="round"/>
<path d="M179 103.472L170.5 96L143 118" stroke="#C2E8FF" stroke-width="3" stroke-linecap="round" stroke-linejoin="round"/>
<path fill-rule="evenodd" clip-rule="evenodd" d="M143.394 110.089L144.696 116.215L141.734 118.501L139.267 118.683L141.447 110.052C141.582 109.516 142.126 109.192 142.661 109.327C143.031 109.42 143.315 109.716 143.394 110.089Z" fill="#C2E8FF"/>
<path fill-rule="evenodd" clip-rule="evenodd" d="M89.25 125.757V67.5L80.75 65V148.836C80.7438 149.8 80.4368 150.751 80 151.689C79.5632 152.626 78.4536 153.813 77 154.75H93C91.5942 153.847 90.8261 152.799 90.25 152.105C89.6739 151.411 89.3586 150.472 89.25 149.289V134.184C89.3625 134.11 89.2191 134.024 89.318 133.925L99.9246 123.318C100.706 122.537 100.706 121.271 99.9246 120.49L98.5104 119.075C97.7294 118.294 96.463 118.294 95.682 119.075L89.25 125.757Z" fill="#C2E8FF"/>
<path fill-rule="evenodd" clip-rule="evenodd" d="M81.2838 66.3145L88.9739 68.8478V71.5167L80.5852 69.0627L81.2838 66.3145Z" fill="white"/>
<path fill-rule="evenodd" clip-rule="evenodd" d="M89.5 125.757V67.5L80.5 65V148.836C80.4938 149.8 80.4368 150.751 80 151.689C79.5632 152.626 78.4536 154.563 77 155.5H93C91.5942 154.597 91.2925 153.283 90.7164 152.589C90.1403 151.895 89.6086 150.472 89.5 149.289V134.184C89.575 134.134 93.0499 130.513 99.9246 123.318C100.706 122.537 100.706 121.271 99.9246 120.49L98.5104 119.075C97.7294 118.294 96.463 118.294 95.682 119.075L89.5 125.757Z" stroke="#8CD3F8" stroke-width="3" stroke-linecap="round" stroke-linejoin="round"/>
<path d="M69 155.5H105" stroke="#8CD3F8" stroke-width="3" stroke-linecap="round"/>
<path d="M62.5 155.5H64" stroke="#8CD3F8" stroke-width="3" stroke-linecap="round"/>
<path fill-rule="evenodd" clip-rule="evenodd" d="M97.9784 147.294L99.5 154.5H94.5L96.0216 147.294C96.1357 146.754 96.6662 146.408 97.2066 146.522C97.594 146.604 97.8966 146.907 97.9784 147.294Z" fill="#8CD3F8"/>
<path fill-rule="evenodd" clip-rule="evenodd" d="M93.9744 149.885L95.5 156.5H90.5L92.0256 149.885C92.1497 149.347 92.6866 149.012 93.2247 149.136C93.5974 149.222 93.8885 149.513 93.9744 149.885Z" fill="#8CD3F8"/>
<path fill-rule="evenodd" clip-rule="evenodd" d="M76.3191 145.867L78 154.5H72L74.3728 145.795C74.518 145.263 75.0677 144.948 75.6006 145.094C75.9678 145.194 76.2464 145.494 76.3191 145.867Z" fill="#8CD3F8"/>
<path fill-rule="evenodd" clip-rule="evenodd" d="M49.5 73.5H119.5C121.709 73.5 123.5 75.2909 123.5 77.5V117.5C123.5 119.709 121.709 121.5 119.5 121.5H49.5C47.2909 121.5 45.5 119.709 45.5 117.5V111.468L48.5 110.3L45.5 109.445V107.112L50.5 105.454L45.5 103.106V77.5C45.5 75.2909 47.2909 73.5 49.5 73.5Z" fill="#C2E8FF"/>
<path fill-rule="evenodd" clip-rule="evenodd" d="M45.5 73.5H123.5V121.5H45.5V111.718L48.75 110.55L45.5 109.695V107.362L50.75 105.704L45.5 103.356V73.5Z" stroke="#8CD3F8" stroke-width="3" stroke-linecap="round" stroke-linejoin="round"/>
<path d="M123 89.5H45.5" stroke="#8CD3F8" stroke-width="3" stroke-linejoin="round"/>
<path d="M123 105.5H50" stroke="#8CD3F8" stroke-width="3" stroke-linejoin="round"/>
<path d="M118.5 80C119.328 80 120 79.3284 120 78.5C120 77.6716 119.328 77 118.5 77C117.672 77 117 77.6716 117 78.5C117 79.3284 117.672 80 118.5 80Z" fill="#8CD3F8"/>
<path d="M118.5 118C119.328 118 120 117.328 120 116.5C120 115.672 119.328 115 118.5 115C117.672 115 117 115.672 117 116.5C117 117.328 117.672 118 118.5 118Z" fill="#8CD3F8"/>
<path d="M50.5 80C51.3284 80 52 79.3284 52 78.5C52 77.6716 51.3284 77 50.5 77C49.6716 77 49 77.6716 49 78.5C49 79.3284 49.6716 80 50.5 80Z" fill="#8CD3F8"/>
<path d="M50.5 118C51.3284 118 52 117.328 52 116.5C52 115.672 51.3284 115 50.5 115C49.6716 115 49 115.672 49 116.5C49 117.328 49.6716 118 50.5 118Z" fill="#8CD3F8"/>
<path fill-rule="evenodd" clip-rule="evenodd" d="M74.4321 90.9677C73.21 92.8474 72.5 95.0908 72.5 97.5C72.5 104.127 77.8726 109.5 84.5 109.5C86.9092 109.5 89.1526 108.79 91.0323 107.568L74.4321 90.9677ZM77.9677 87.4321L94.5679 104.032C95.79 102.153 96.5 99.9092 96.5 97.5C96.5 90.8726 91.1274 85.5 84.5 85.5C82.0908 85.5 79.8474 86.21 77.9677 87.4321ZM84.5 114.5C75.1112 114.5 67.5 106.889 67.5 97.5C67.5 88.1112 75.1112 80.5 84.5 80.5C93.8888 80.5 101.5 88.1112 101.5 97.5C101.5 106.889 93.8888 114.5 84.5 114.5Z" fill="white"/>
<path d="M122 75H47V77H122V75Z" fill="white"/>
<path fill-rule="evenodd" clip-rule="evenodd" d="M93.5659 121.779L93.8451 129.775L106.91 116.577C107.649 115.757 107.583 114.492 106.762 113.753L105.276 112.415C104.455 111.676 103.19 111.742 102.451 112.563L93.5659 121.779Z" fill="#C2E8FF" stroke="#8CD3F8" stroke-width="3" stroke-linecap="round" stroke-linejoin="round"/>
<path fill-rule="evenodd" clip-rule="evenodd" d="M96.4633 120.981L86.0133 131.055C86.6313 133.216 86.9753 134.28 87.0453 134.249C87.1153 134.217 87.8521 133.561 89.2556 132.281L97.4384 124.015L96.4633 120.981Z" fill="#C2E8FF"/>
<path fill-rule="evenodd" clip-rule="evenodd" d="M209.171 106.543L215.009 126.694C215.317 127.755 214.706 128.864 213.645 129.171C213.464 129.224 213.277 129.25 213.088 129.25H201.412C200.307 129.25 199.412 128.355 199.412 127.25C199.412 127.062 199.438 126.875 199.491 126.694L205.329 106.543C205.636 105.482 206.746 104.871 207.807 105.178C208.465 105.369 208.98 105.884 209.171 106.543Z" fill="white"/>
<path fill-rule="evenodd" clip-rule="evenodd" d="M207.5 102.412L216.5 128.5H198.5L207.5 102.412Z" stroke="#C2E8FF" stroke-width="3" stroke-linecap="round" stroke-linejoin="round"/>
<path fill-rule="evenodd" clip-rule="evenodd" d="M207.5 104.598C207.5 123.773 207.5 133.574 207.5 134C207.5 133.574 207.5 123.773 207.5 104.598Z" stroke="#C2E8FF" stroke-width="3" stroke-linecap="round" stroke-linejoin="round"/>
<path fill-rule="evenodd" clip-rule="evenodd" d="M212.25 116.912C209.583 120.143 208.25 121.809 208.25 121.912C208.25 121.809 209.583 120.143 212.25 116.912Z" stroke="#C2E8FF" stroke-width="3" stroke-linecap="round" stroke-linejoin="round"/>
<path fill-rule="evenodd" clip-rule="evenodd" d="M225.324 85.75L237.555 126.677C237.871 127.736 237.27 128.85 236.212 129.166C236.026 129.222 235.833 129.25 235.639 129.25H215.009C213.904 129.25 213.009 128.355 213.009 127.25C213.009 127.056 213.037 126.863 213.093 126.677L225.324 85.75Z" fill="white"/>
<path fill-rule="evenodd" clip-rule="evenodd" d="M225.5 85.75L239.25 128.5H212.25L225.5 85.75Z" stroke="#C2E8FF" stroke-width="3" stroke-linecap="round" stroke-linejoin="round"/>
<path fill-rule="evenodd" clip-rule="evenodd" d="M225.5 87.543C225.5 117.763 225.5 133.248 225.5 134C225.5 133.248 225.5 117.763 225.5 87.543Z" stroke="#C2E8FF" stroke-width="3" stroke-linecap="round" stroke-linejoin="round"/>
<path fill-rule="evenodd" clip-rule="evenodd" d="M219.824 108.75L225.324 113.25C225.324 113.123 223.491 111.623 219.824 108.75Z" stroke="#C2E8FF" stroke-width="3" stroke-linecap="round" stroke-linejoin="round"/>
<path fill-rule="evenodd" clip-rule="evenodd" d="M225.824 119.75C230.491 114.289 232.824 111.623 232.824 111.75C232.824 111.623 230.491 114.289 225.824 119.75Z" stroke="#C2E8FF" stroke-width="3" stroke-linecap="round" stroke-linejoin="round"/>
<path d="M108 46.5402H117.5C117.139 43.8135 118.041 41.5325 120.204 39.6971C122.688 37.6505 125.637 38.1093 127.22 38.8155C128.804 39.5217 129.98 40.492 130.796 42.3229C131.141 43.0938 131.376 43.746 131.5 44.2795" stroke="#C2E8FF" stroke-width="3" stroke-linecap="round"/>
<path d="M127.5 48.0471C128.028 46.2115 129.111 45.0114 130.75 44.4467C133.209 43.5997 135.54 44.7277 136.471 45.8627C137.402 46.9977 137.698 47.9095 137.873 48.861C137.99 49.4953 138.033 50.2288 138 51.0613H140.082C142.018 51.578 142.994 52.7297 143.008 54.5163C143.032 57.706 140.695 58.4997 139.5 58.4997H100" stroke="#C2E8FF" stroke-width="3" stroke-linecap="round"/>
<path d="M95 52.5H127.5" stroke="#C2E8FF" stroke-width="3" stroke-linecap="round"/>
<path d="M86 52.5H90" stroke="#C2E8FF" stroke-width="3" stroke-linecap="round"/>
<path d="M179 68.5402H188.5C188.139 65.8135 189.041 63.5325 191.204 61.6971C193.688 59.6505 196.637 60.1093 198.22 60.8155C199.804 61.5217 200.98 62.492 201.796 64.3229C202.141 65.0938 202.376 65.746 202.5 66.2795" stroke="#C2E8FF" stroke-width="3" stroke-linecap="round"/>
<path d="M198.5 70.0471C199.028 68.2115 200.111 67.0114 201.75 66.4467C204.209 65.5997 206.54 66.7277 207.471 67.8627C208.402 68.9977 208.698 69.9095 208.873 70.861C208.99 71.4953 209.033 72.2288 209 73.0613H211.082C213.018 73.578 213.994 74.7297 214.008 76.5163C214.032 79.706 211.695 80.4997 210.5 80.4997H171" stroke="#C2E8FF" stroke-width="3" stroke-linecap="round"/>
<path d="M166 74.5H198.5" stroke="#C2E8FF" stroke-width="3" stroke-linecap="round"/>
<path d="M157 74.5H161" stroke="#C2E8FF" stroke-width="3" stroke-linecap="round"/>
</g>
<defs>
<clipPath id="clip0_1340_3859">
<rect width="300" height="200" fill="white"/>
</clipPath>
</defs>
</svg>
